<svg width="132" height="34" viewBox="0 0 132 34" fill="none" xmlns="http://www.w3.org/2000/svg">
<g clip-path="url(#clip0_170_10307)">
<path d="M14.5428 0H0V34L14.5428 0Z" fill="#FA0C00"/>
<path d="M24.7754 0H39.2992V34L24.7754 0Z" fill="#FA0C00"/>
<path d="M19.6579 12.5312L28.9142 34.0001H22.8412L20.0748 27.1649H13.3008L19.6579 12.5312Z" fill="#FA0C00"/>
<path d="M63.0233 21.6221L64.7381 26.4289C64.795 26.5493 64.8802 26.6049 65.0318 26.6049H68.3288C68.5089 26.6049 68.5373 26.5215 68.5088 26.3456L61.6969 7.8498C61.6685 7.70161 61.6401 7.67383 61.4885 7.67383H57.3957C57.282 7.67383 57.2157 7.75718 57.2157 7.87759C57.1588 8.85008 57.0736 9.14645 56.9504 9.43357L50.8775 26.3178C50.849 26.5216 50.9154 26.6049 51.0859 26.6049H54.0324C54.2124 26.6049 54.2976 26.5493 54.3639 26.3734L55.984 21.6221H63.0233ZM56.922 18.4823C57.8125 15.852 58.9873 12.4807 59.461 10.5542H59.4895C60.0769 12.5733 61.4601 16.5744 62.0854 18.4823H56.922Z" fill="#FA0C00"/>
<path d="M77.266 26.8918C79.0377 26.8918 80.923 26.5769 82.8368 25.7711C82.9884 25.7156 83.0168 25.6507 83.0168 25.5118C82.96 24.9931 82.8937 24.2429 82.8937 23.6687V6.25656C82.8937 6.14542 82.8937 6.08984 82.7516 6.08984H79.5398C79.4167 6.08984 79.3598 6.14542 79.3598 6.2936V12.1934C78.8577 12.1378 78.5071 12.11 78.0903 12.11C72.9079 12.11 69.7246 15.4535 69.7246 19.6306C69.7246 24.4745 72.9932 26.8918 77.266 26.8918V26.8918ZM79.3598 23.6687C78.8293 23.8354 78.2419 23.9003 77.645 23.9003C75.2954 23.9003 73.3722 22.6036 73.3722 19.4546C73.3722 16.6668 75.3523 15.0182 77.9766 15.0182C78.5071 15.0182 78.9714 15.0738 79.3598 15.222V23.6687Z" fill="#FA0C00"/>
<path d="M93.2621 12.1099C88.8376 12.1099 86.0996 15.4256 86.0996 19.5193C86.0996 23.1777 88.2787 26.8917 93.1957 26.8917C97.3549 26.8917 100.273 23.9001 100.273 19.4267C100.273 15.4812 97.8002 12.1099 93.2621 12.1099ZM93.0821 15.0181C95.5832 15.0181 96.6443 17.1205 96.6443 19.5193C96.6443 22.4831 95.0811 23.9557 93.2621 23.9557C91.0167 23.9557 89.6903 22.1126 89.6903 19.4545C89.6903 16.7222 91.102 15.0181 93.0821 15.0181V15.0181Z" fill="#FA0C00"/>
<path d="M103.595 6.08984C103.472 6.08984 103.387 6.14542 103.387 6.2936V26.0027C103.387 26.086 103.472 26.2342 103.595 26.262C105.007 26.688 106.485 26.8918 108.01 26.8918C112.378 26.8918 116.622 24.2429 116.622 18.9082C116.622 15.046 113.912 12.11 109.668 12.11C108.692 12.11 107.783 12.2582 106.987 12.5175L106.949 6.32139C106.949 6.11763 106.892 6.08984 106.684 6.08984H103.595ZM112.993 19.2601C112.993 22.4554 110.758 23.9558 108.342 23.9558C107.84 23.9558 107.394 23.928 106.987 23.8076V15.3979C107.451 15.222 108.01 15.0738 109.043 15.0738C111.373 15.0738 112.993 16.5186 112.993 19.2601Z" fill="#FA0C00"/>
<path d="M128.608 20.2973C130.048 20.2973 131.232 20.2695 131.639 20.1769C131.791 20.1491 131.848 20.0935 131.876 19.9731C131.962 19.6582 131.999 19.0006 131.999 18.1949C131.999 15.4534 130.313 12.1099 125.955 12.1099C121.502 12.1099 119.029 15.6571 119.029 19.6582C119.029 23.2055 120.943 26.8917 126.305 26.8917C128.314 26.8917 129.612 26.5768 130.73 26.0581C130.844 26.0025 130.9 25.9099 130.9 25.7432V23.3444C130.9 23.2055 130.815 23.1777 130.73 23.2333C129.612 23.6964 128.399 23.9279 127.073 23.9279C124.07 23.9279 122.705 22.3071 122.62 20.2973H128.608ZM122.62 17.8151C122.857 16.4073 123.766 14.8791 125.803 14.8791C128.049 14.8791 128.636 16.7222 128.636 17.5558C128.636 17.5836 128.636 17.704 128.636 17.7873C128.513 17.8151 128.134 17.8151 127.016 17.8151H122.62Z" fill="#FA0C00"/>
</g>
<defs>
<clipPath id="clip0_170_10307">
<rect width="132" height="34" fill="white"/>
</clipPath>
</defs>
</svg>
