<svg width="132" height="47" viewBox="0 0 132 47" fill="none" xmlns="http://www.w3.org/2000/svg">
<g clip-path="url(#clip0_170_10318)">
<path d="M89.5856 33.9924C89.5782 33.9998 89.5708 33.9998 89.5708 34.0072C83.9475 37.9545 77.2903 42.1011 70.1273 46.4542L69.8447 46.6165C69.748 46.6829 69.7257 46.8157 69.7926 46.9117C69.8595 47.0076 69.9934 47.0297 70.0901 46.9633L70.3281 46.8379C76.4052 43.6948 83.3822 39.9614 90.4038 36.1321C90.441 36.1099 90.4782 36.0878 90.5154 36.0731C90.1286 35.4385 89.8088 34.745 89.5856 33.9924ZM126.479 4.36883C117.62 -5.32615 60.6064 3.39491 36.3653 8.6482L35.8 8.76625C35.681 8.78839 35.6066 8.89906 35.6289 9.00973C35.6513 9.12778 35.7628 9.20157 35.8744 9.17943L36.4323 9.06876C56.5154 5.51983 98.2883 0.605937 107.274 9.44505C110.018 12.1455 109.364 15.6132 106.18 19.7155C107.891 20.8075 109.111 22.5266 109.661 24.6737C122.083 16.4986 130.421 8.68509 126.479 4.36883Z" fill="#D03027"/>
<path d="M93.1709 31.4469C93.2825 34.8557 95.4619 37.652 98.2958 37.652C103.793 37.652 106.136 30.9526 105.972 26.4814C105.853 23.0653 103.622 20.2763 100.788 20.2763C96.0644 20.2689 93.0073 26.9388 93.1709 31.4469ZM90.27 31.2625C90.0692 25.441 94.666 19.4868 101.345 19.4868C105.808 19.4868 108.732 22.4381 108.895 26.961C109.111 33.0996 104.812 38.7366 97.8272 38.7366C93.3494 38.7366 90.4262 35.7927 90.27 31.2625Z" fill="#004977"/>
<path d="M27.0115 29.7275C26.7735 29.816 26.4685 29.9046 26.0817 29.9857C25.7024 30.0743 25.0032 30.1923 23.9916 30.3546C23.2924 30.4653 22.8089 30.6055 22.5337 30.8047C22.2733 30.9965 22.1171 31.2253 22.0725 31.513C22.0204 31.8155 22.1171 32.0516 22.3775 32.2435C22.6453 32.4279 23.0915 32.5238 23.7238 32.5238C24.1998 32.5238 24.661 32.4501 25.1073 32.3025C25.561 32.1549 25.9478 31.9557 26.2379 31.7049C26.4536 31.5204 26.6098 31.2843 26.7288 30.9965C26.8032 30.8047 26.8999 30.3842 27.0115 29.7275ZM32.8133 26.1491C32.791 26.6803 32.6943 27.1525 32.5529 27.9715L31.5711 33.4387C31.4893 33.9257 31.6678 34.302 32.1215 34.5676L32.0918 34.7816L26.4685 34.7742L26.4164 33.3871C25.5982 33.8741 24.6089 34.2872 23.7164 34.5307C22.8238 34.7594 22.1023 34.8554 21.0237 34.8554C19.2088 34.8554 18.1675 34.6709 17.446 34.0437C16.717 33.4018 16.36 32.9739 16.3972 32.0885C16.4269 31.5794 16.6947 30.9228 17.074 30.4653C17.4608 30.0005 17.9964 29.698 18.5691 29.425C19.1493 29.152 19.8336 28.9528 20.8229 28.7978C21.8196 28.6355 23.2031 28.4806 25.0552 28.3256C26.0296 28.2445 26.6247 28.0231 26.8999 27.9124C27.2867 27.7649 27.4429 27.5952 27.495 27.2853C27.5991 26.7246 27.4206 26.3999 26.6619 26.2523C24.6387 25.8539 20.8378 26.5106 18.8815 26.9902L19.9452 24.1422C22.5262 23.7659 24.9437 23.5298 27.495 23.5298C31.5637 23.5298 32.8579 24.6734 32.8133 26.1491Z" fill="#004977"/>
<path d="M49.1172 34.7744L51.066 23.8473H56.4513L54.5024 34.7744H49.1172ZM51.3635 21.3166C51.5272 20.4164 52.9553 19.6934 54.5471 19.6934C56.1463 19.6934 57.3141 20.4238 57.1579 21.3166C56.9868 22.2167 55.5661 22.9472 53.9595 22.9472C52.3677 22.9472 51.2073 22.2167 51.3635 21.3166Z" fill="#004977"/>
<path d="M75.5721 29.7496C75.3266 29.8307 75.0142 29.9193 74.6349 30.0078C74.2555 30.0964 73.5563 30.207 72.5447 30.3693C71.853 30.48 71.3621 30.6202 71.0943 30.8194C70.8339 31.0039 70.6852 31.24 70.6257 31.5203C70.5662 31.8229 70.6777 32.0663 70.9306 32.2508C71.2058 32.4352 71.6521 32.5238 72.2844 32.5238C72.753 32.5238 73.2142 32.4574 73.6679 32.3172C74.1291 32.1623 74.5084 31.9704 74.8059 31.7196C75.0142 31.5351 75.1704 31.2916 75.282 31.0112C75.3564 30.8268 75.4531 30.4062 75.5721 29.7496ZM81.3739 26.1638C81.3516 26.7024 81.2549 27.1746 81.1061 27.9862L80.1317 33.4608C80.0499 33.9404 80.2284 34.3241 80.6821 34.5897L80.6524 34.7815L75.0291 34.7889L74.9845 33.3944C74.1662 33.8888 73.1695 34.3019 72.2844 34.538C71.3918 34.7741 70.6703 34.8701 69.5769 34.8701C67.762 34.8701 66.728 34.693 66.0065 34.0585C65.2702 33.4092 64.9206 32.9886 64.9578 32.1032C64.9801 31.5868 65.2478 30.9301 65.6346 30.48C66.0214 30.0078 66.557 29.7127 67.1372 29.4397C67.7173 29.1667 68.4016 28.9675 69.3835 28.8052C70.3802 28.6502 71.7712 28.4879 73.6233 28.333C74.5902 28.2518 75.1853 28.0378 75.4605 27.9272C75.8547 27.7796 76.0035 27.6099 76.063 27.2926C76.1597 26.7393 75.9886 26.4146 75.2374 26.2597C73.1993 25.8612 69.4132 26.5179 67.457 26.9975L68.5132 24.1495C71.1017 23.7732 73.5117 23.5371 76.063 23.5371C80.1168 23.5445 81.4111 24.6955 81.3739 26.1638Z" fill="#004977"/>
<path d="M15.6673 30.8493C13.9119 31.1961 12.93 31.3289 11.1969 31.3289C8.62333 31.3289 6.57783 30.0598 6.6894 27.7357C6.77122 26.1862 8.61589 22.9251 13.3094 22.9251C14.7896 22.9251 15.9425 23.1833 17.4971 24.0613L18.1814 20.2689C16.069 19.4794 14.6706 19.3614 12.8557 19.3762C6.69684 19.4426 0.790906 22.2168 0.0545245 27.8611C-0.689296 33.594 6.36956 35.0327 9.50104 35.018C11.3085 35.0106 13.1904 34.9368 14.9458 34.7597L15.6673 30.8493Z" fill="#004977"/>
<path d="M59.4184 23.7884L59.8052 21.5602L65.4359 20.3428L64.8334 23.781H67.593L67.0723 25.9797L64.3946 25.9724L62.7656 34.7598C62.7656 34.7598 57.3432 34.7229 57.3208 34.7598L58.9424 25.9945H56.9043L57.3208 23.781H59.4184V23.7884Z" fill="#004977"/>
<path d="M89.4615 19.6783L86.8433 34.7668L81.3613 34.7742L84.1209 19.5308L89.4615 19.6783Z" fill="#004977"/>
<path d="M41.991 26.4077C41.2844 26.4077 40.6447 26.6216 40.0794 27.0422C39.5141 27.4701 39.1571 28.0899 39.0158 28.9089C38.8447 29.8607 38.9488 30.5469 39.3282 30.9674C39.715 31.388 40.2654 31.602 40.9943 31.602C41.4853 31.602 41.991 31.5134 42.363 31.329C42.8241 31.0855 43.144 30.8346 43.4192 30.4288C43.7167 30.0083 43.9101 29.536 44.0142 28.9901C44.1704 28.1268 44.0366 27.4849 43.6349 27.057C43.2407 26.629 42.6977 26.4077 41.991 26.4077ZM32.1875 38.5449L34.8132 23.9065H39.5439L39.1794 25.7732C39.5885 25.2124 40.2431 24.755 41.1505 24.386C42.0654 24.0171 43.0919 23.7441 44.2076 23.7441C45.4424 23.7441 46.2011 23.8105 47.1234 24.2828C48.0383 24.7623 48.6854 25.4559 49.0276 26.356C49.3846 27.2414 49.459 28.2449 49.2656 29.3295C48.9458 31.1371 48.0606 32.5537 46.6027 33.6014C45.1597 34.6492 43.858 34.9221 42.0059 34.9295C41.3514 34.9295 40.8009 34.8631 40.3472 34.7525C39.9009 34.6344 39.5439 34.4942 39.2761 34.3245C39.0158 34.1548 38.7406 33.9113 38.391 33.5277L37.5133 38.5449H32.1875Z" fill="#004977"/>
<path d="M129.937 27.7502C129.907 26.8722 129.461 26.2746 128.546 26.2746C126.337 26.2746 123.987 30.5687 123.585 32.2952C127.207 32.3026 130.026 30.1629 129.937 27.7502ZM130.413 34.4791L130.837 34.7669C129.759 36.9435 127.564 38.6921 124.991 38.6921C122.886 38.6921 121.153 37.2976 121.063 34.6857C120.892 30.0006 125.318 25.6548 128.94 25.6548C130.495 25.6548 131.938 26.3262 131.998 27.9863C132.131 31.7123 126.858 32.8486 123.384 32.9297C123.273 33.3208 123.228 33.7118 123.25 34.3021C123.31 35.8441 124.247 37.1427 126.196 37.1427C127.877 37.1427 129.558 35.7998 130.413 34.4791Z" fill="#004977"/>
<path d="M108.814 27.6322C109.186 27.5806 109.789 27.5142 110.049 27.5142C110.443 27.5142 110.815 27.5879 110.838 27.979C110.845 28.2077 110.429 29.8678 110.339 30.2515L109.499 33.9258C109.157 35.431 108.792 37.0025 108.465 38.2495H110.622L111.834 32.428C115.531 28.6061 116.959 27.3592 117.83 27.3592C118.224 27.3592 118.492 27.5658 118.514 28.0306C118.536 28.702 118.112 30.2293 117.971 30.672L116.736 34.9145C116.453 35.8663 116.245 36.7295 116.268 37.3419C116.305 38.2716 116.87 38.6848 117.718 38.6848C119.295 38.6848 120.44 37.0542 121.437 35.4531L121.147 34.9293C120.745 35.5712 119.808 36.9804 119.072 36.9804C118.841 36.9804 118.618 36.8255 118.611 36.4418C118.588 35.9475 118.797 35.2023 118.945 34.7079L120.321 29.735C120.693 28.3626 120.864 27.4846 120.857 27.0124C120.82 26.0828 120.277 25.6475 119.436 25.6475C118.015 25.6475 116.134 26.6804 112.139 31.2328H112.08L112.586 29.0119C112.861 27.7945 113.129 26.5255 113.381 25.6475C111.998 26.1418 110.019 26.6952 108.8 26.9313L108.814 27.6322Z" fill="#004977"/>
</g>
<defs>
<clipPath id="clip0_170_10318">
<rect width="132" height="47" fill="white"/>
</clipPath>
</defs>
</svg>
