<svg width="280" height="280" viewBox="0 0 280 280" fill="none" xmlns="http://www.w3.org/2000/svg">
<path d="M214.407 100.459L89.2061 68.0332L87.7815 73.5335L212.982 105.959L214.407 100.459Z" fill="#C63539"/>
<path d="M46.7361 119.16L83.3186 103.982L72.6159 67.6602L61.85 94.6581L48.3276 68.279L48.8222 98.6218L29.4492 80.2122L46.7361 119.16Z" fill="#D5C1AC"/>
<path d="M44.9893 124.181L44.5156 124.021C44.4535 124.205 44.5031 124.407 44.6429 124.542L44.9893 124.181ZM86.6535 109.503L86.3447 109.896C86.4531 109.981 86.5918 110.018 86.728 109.997L86.6535 109.503ZM96.5708 108.008L97.0259 108.215C97.1019 108.048 97.0804 107.853 96.9699 107.706C96.8595 107.56 96.6777 107.486 96.4963 107.513L96.5708 108.008ZM91.5993 118.921L91.1443 118.714C91.0381 118.947 91.1252 119.223 91.3461 119.352L91.5993 118.921ZM133.369 144.03C133.607 144.17 133.913 144.09 134.053 143.852C134.193 143.614 134.113 143.307 133.875 143.167L133.369 144.03ZM77.9755 155.176L45.3356 123.82L44.6429 124.542L77.2828 155.897L77.9755 155.176ZM44.9893 124.181C45.4629 124.341 45.4629 124.341 45.4629 124.341C45.463 124.341 45.4631 124.341 45.4632 124.34C45.4635 124.339 45.464 124.338 45.4647 124.336C45.4661 124.332 45.4682 124.326 45.4711 124.317C45.4769 124.301 45.4858 124.275 45.4978 124.241C45.5218 124.173 45.5583 124.072 45.6072 123.94C45.7052 123.676 45.8532 123.29 46.0522 122.806C46.4504 121.838 47.052 120.478 47.8639 118.915C49.4901 115.786 51.949 111.868 55.2901 108.662C58.6286 105.458 62.8235 102.986 67.9355 102.687C73.0456 102.387 79.1585 104.254 86.3447 109.896L86.9623 109.11C79.6451 103.364 73.2983 101.371 67.877 101.688C62.4575 102.006 58.0493 104.628 54.5976 107.94C51.1485 111.25 48.6301 115.272 46.9766 118.454C46.1486 120.047 45.5347 121.435 45.1273 122.426C44.9236 122.922 44.7714 123.318 44.6698 123.592C44.6189 123.729 44.5808 123.835 44.5551 123.907C44.5423 123.944 44.5326 123.972 44.526 123.991C44.5227 124 44.5202 124.007 44.5185 124.012C44.5176 124.015 44.5169 124.017 44.5164 124.018C44.5162 124.019 44.516 124.02 44.5159 124.02C44.5157 124.021 44.5156 124.021 44.9893 124.181ZM86.728 109.997L96.6454 108.502L96.4963 107.513L86.5789 109.009L86.728 109.997ZM96.1158 107.8L91.1443 118.714L92.0543 119.128L97.0259 108.215L96.1158 107.8ZM91.3461 119.352L133.369 144.03L133.875 143.167L91.8525 118.49L91.3461 119.352Z" fill="#1B191A"/>
<path d="M184.416 216.659C184.155 216.567 183.87 216.704 183.779 216.965C183.687 217.226 183.824 217.511 184.085 217.602L184.416 216.659ZM198.399 216.113L198.642 215.676C198.406 215.545 198.109 215.624 197.97 215.855C197.831 216.086 197.9 216.385 198.126 216.532L198.399 216.113ZM198.218 211.819L198.348 211.336C198.098 211.269 197.838 211.404 197.749 211.646C197.66 211.889 197.77 212.16 198.004 212.271L198.218 211.819ZM199.643 205.565L199.768 205.081C199.514 205.016 199.253 205.157 199.17 205.405C199.086 205.654 199.208 205.924 199.449 206.026L199.643 205.565ZM198.045 199.016L198.09 198.518C197.824 198.494 197.586 198.683 197.549 198.947C197.513 199.211 197.689 199.458 197.951 199.507L198.045 199.016ZM196.38 187.69L195.898 187.56C195.832 187.802 195.956 188.055 196.187 188.151L196.38 187.69ZM162.292 178.333L162.025 177.91C162.01 177.92 161.996 177.93 161.982 177.94L162.292 178.333ZM184.25 217.13C184.085 217.602 184.085 217.602 184.085 217.602C184.085 217.602 184.086 217.603 184.086 217.603C184.087 217.603 184.088 217.603 184.09 217.604C184.093 217.605 184.097 217.607 184.103 217.609C184.115 217.613 184.133 217.619 184.157 217.627C184.204 217.644 184.274 217.668 184.365 217.7C184.547 217.763 184.814 217.856 185.153 217.973C185.832 218.207 186.802 218.539 187.963 218.931C190.286 219.715 193.38 220.738 196.46 221.694C199.538 222.649 202.615 223.541 204.899 224.06C206.035 224.319 207.003 224.491 207.684 224.527C208.013 224.544 208.338 224.533 208.591 224.446C208.721 224.401 208.885 224.319 209.002 224.157C209.132 223.978 209.155 223.772 209.117 223.59L208.139 223.797C208.128 223.749 208.13 223.656 208.193 223.57C208.243 223.501 208.293 223.491 208.266 223.501C208.205 223.522 208.043 223.544 207.736 223.528C207.146 223.498 206.249 223.342 205.12 223.085C202.876 222.575 199.83 221.693 196.757 220.739C193.687 219.786 190.601 218.766 188.283 217.984C187.124 217.593 186.157 217.261 185.479 217.028C185.141 216.911 184.875 216.819 184.693 216.756C184.603 216.724 184.533 216.7 184.487 216.683C184.463 216.675 184.445 216.669 184.434 216.665C184.428 216.663 184.423 216.661 184.42 216.66C184.419 216.66 184.418 216.659 184.417 216.659C184.417 216.659 184.416 216.659 184.416 216.659C184.416 216.659 184.416 216.659 184.25 217.13ZM209.117 223.59C209.033 223.19 208.757 222.79 208.434 222.422C208.099 222.04 207.658 221.633 207.157 221.219C206.155 220.39 204.873 219.497 203.616 218.68C202.357 217.861 201.114 217.11 200.187 216.565C199.723 216.292 199.337 216.07 199.067 215.916C198.932 215.84 198.826 215.78 198.754 215.739C198.717 215.719 198.69 215.703 198.671 215.692C198.661 215.687 198.654 215.683 198.649 215.68C198.647 215.679 198.645 215.678 198.644 215.677C198.643 215.677 198.642 215.677 198.642 215.676C198.642 215.676 198.642 215.676 198.642 215.676C198.642 215.676 198.642 215.676 198.399 216.113C198.156 216.55 198.156 216.55 198.156 216.55C198.156 216.55 198.156 216.55 198.156 216.55C198.156 216.55 198.157 216.551 198.157 216.551C198.158 216.552 198.16 216.553 198.162 216.554C198.167 216.556 198.174 216.56 198.183 216.565C198.201 216.575 198.228 216.591 198.263 216.611C198.334 216.65 198.439 216.709 198.572 216.785C198.839 216.937 199.22 217.157 199.68 217.427C200.6 217.968 201.829 218.71 203.071 219.518C204.315 220.328 205.561 221.196 206.52 221.99C207 222.387 207.396 222.756 207.683 223.082C207.981 223.422 208.11 223.661 208.139 223.797L209.117 223.59ZM198.399 216.113C198.126 216.532 198.126 216.532 198.126 216.532C198.126 216.533 198.127 216.533 198.127 216.533C198.127 216.533 198.128 216.534 198.129 216.534C198.131 216.536 198.134 216.538 198.139 216.54C198.147 216.546 198.159 216.554 198.175 216.564C198.207 216.584 198.253 216.615 198.314 216.654C198.436 216.732 198.615 216.846 198.84 216.989C199.292 217.274 199.933 217.675 200.695 218.136C202.216 219.059 204.223 220.23 206.153 221.215C208.059 222.188 209.961 223.017 211.244 223.201C211.571 223.248 211.891 223.258 212.176 223.201C212.467 223.143 212.755 223.008 212.952 222.739C213.148 222.471 213.2 222.146 213.171 221.818C213.143 221.494 213.032 221.129 212.858 220.728L211.941 221.128C212.093 221.476 212.16 221.73 212.175 221.906C212.19 222.079 212.153 222.136 212.145 222.147C212.139 222.157 212.108 222.195 211.981 222.22C211.849 222.247 211.654 222.249 211.386 222.211C210.29 222.054 208.528 221.305 206.607 220.324C204.709 219.356 202.726 218.199 201.213 217.281C200.458 216.823 199.822 216.426 199.375 216.143C199.151 216.002 198.975 215.89 198.855 215.812C198.795 215.774 198.749 215.744 198.718 215.724C198.702 215.714 198.691 215.707 198.683 215.701C198.679 215.699 198.676 215.697 198.674 215.696C198.673 215.695 198.672 215.695 198.672 215.694C198.672 215.694 198.672 215.694 198.671 215.694C198.671 215.694 198.671 215.694 198.399 216.113ZM212.858 220.728C212.158 219.123 210.875 217.743 209.388 216.58C207.897 215.415 206.171 214.445 204.542 213.672C202.911 212.898 201.366 212.315 200.228 211.926C199.659 211.731 199.191 211.584 198.864 211.486C198.701 211.436 198.573 211.399 198.485 211.374C198.441 211.362 198.408 211.353 198.385 211.346C198.373 211.343 198.364 211.341 198.358 211.339C198.355 211.338 198.353 211.337 198.351 211.337C198.35 211.337 198.349 211.337 198.349 211.336C198.349 211.336 198.348 211.336 198.348 211.336C198.348 211.336 198.348 211.336 198.218 211.819C198.088 212.302 198.088 212.302 198.088 212.302C198.088 212.302 198.088 212.302 198.088 212.302C198.089 212.302 198.089 212.302 198.09 212.302C198.091 212.302 198.093 212.303 198.095 212.304C198.1 212.305 198.108 212.307 198.118 212.31C198.139 212.316 198.171 212.325 198.212 212.336C198.295 212.36 198.418 212.396 198.576 212.443C198.892 212.538 199.348 212.681 199.904 212.872C201.017 213.253 202.526 213.822 204.113 214.576C205.703 215.33 207.359 216.263 208.772 217.368C210.189 218.475 211.333 219.733 211.941 221.128L212.858 220.728ZM198.218 211.819C198.004 212.271 198.004 212.271 198.005 212.271C198.005 212.271 198.005 212.271 198.005 212.271C198.006 212.272 198.007 212.272 198.008 212.273C198.01 212.274 198.014 212.276 198.019 212.278C198.028 212.282 198.042 212.289 198.06 212.297C198.096 212.314 198.149 212.339 198.218 212.371C198.356 212.435 198.558 212.528 198.814 212.645C199.325 212.878 200.052 213.203 200.916 213.575C202.641 214.317 204.917 215.247 207.107 215.986C209.275 216.718 211.433 217.291 212.888 217.269C213.592 217.259 214.318 217.109 214.707 216.559C215.112 215.985 214.985 215.227 214.609 214.432L213.705 214.86C214.049 215.585 213.964 215.878 213.89 215.982C213.801 216.108 213.53 216.26 212.874 216.269C211.611 216.288 209.603 215.774 207.427 215.039C205.273 214.312 203.025 213.394 201.311 212.656C200.455 212.288 199.735 211.965 199.228 211.735C198.975 211.62 198.776 211.527 198.64 211.464C198.572 211.433 198.519 211.408 198.484 211.392C198.467 211.384 198.454 211.377 198.445 211.373C198.441 211.371 198.437 211.37 198.435 211.369C198.434 211.368 198.433 211.368 198.433 211.367C198.432 211.367 198.432 211.367 198.432 211.367C198.432 211.367 198.432 211.367 198.218 211.819ZM214.609 214.432C213.842 212.813 212.508 211.427 210.978 210.264C209.444 209.098 207.685 208.136 206.031 207.372C204.375 206.607 202.812 206.035 201.664 205.654C201.089 205.464 200.617 205.321 200.288 205.226C200.124 205.178 199.995 205.142 199.906 205.118C199.862 205.106 199.828 205.097 199.805 205.091C199.793 205.088 199.784 205.085 199.778 205.084C199.775 205.083 199.773 205.082 199.771 205.082C199.77 205.082 199.77 205.081 199.769 205.081C199.769 205.081 199.769 205.081 199.768 205.081C199.768 205.081 199.768 205.081 199.643 205.565C199.518 206.049 199.518 206.049 199.518 206.049C199.518 206.049 199.518 206.049 199.519 206.049C199.519 206.05 199.519 206.05 199.52 206.05C199.521 206.05 199.523 206.051 199.525 206.051C199.53 206.053 199.538 206.055 199.549 206.057C199.57 206.063 199.601 206.071 199.643 206.083C199.726 206.106 199.85 206.14 200.01 206.186C200.328 206.279 200.788 206.418 201.349 206.604C202.472 206.976 203.998 207.534 205.611 208.279C207.226 209.025 208.915 209.953 210.373 211.06C211.833 212.17 213.033 213.439 213.705 214.86L214.609 214.432ZM199.643 205.565C199.449 206.026 199.449 206.026 199.45 206.026C199.45 206.026 199.45 206.026 199.45 206.027C199.451 206.027 199.452 206.027 199.454 206.028C199.456 206.029 199.46 206.031 199.466 206.033C199.476 206.037 199.492 206.044 199.513 206.053C199.554 206.07 199.615 206.095 199.695 206.128C199.853 206.193 200.085 206.288 200.378 206.407C200.963 206.643 201.795 206.972 202.778 207.345C204.743 208.089 207.323 209.009 209.767 209.705C210.989 210.052 212.183 210.346 213.255 210.533C214.318 210.719 215.293 210.806 216.062 210.72C216.8 210.637 217.545 210.367 217.809 209.644C218.056 208.967 217.776 208.138 217.204 207.226L216.357 207.758C216.912 208.642 216.943 209.101 216.87 209.301C216.813 209.455 216.607 209.652 215.95 209.726C215.324 209.796 214.46 209.728 213.427 209.548C212.402 209.369 211.243 209.085 210.041 208.743C207.636 208.058 205.086 207.149 203.133 206.409C202.157 206.04 201.332 205.713 200.752 205.479C200.461 205.362 200.232 205.268 200.076 205.204C199.998 205.171 199.938 205.146 199.898 205.13C199.878 205.121 199.862 205.115 199.852 205.111C199.847 205.109 199.843 205.107 199.841 205.106C199.84 205.105 199.839 205.105 199.838 205.105C199.838 205.105 199.838 205.105 199.837 205.104C199.837 205.104 199.837 205.104 199.643 205.565ZM217.204 207.226C214.843 203.466 209.997 201.305 205.862 200.08C203.778 199.462 201.838 199.072 200.419 198.837C199.71 198.719 199.13 198.639 198.726 198.589C198.524 198.564 198.366 198.547 198.258 198.535C198.204 198.529 198.163 198.525 198.135 198.522C198.12 198.521 198.109 198.52 198.102 198.519C198.098 198.519 198.095 198.519 198.093 198.519C198.092 198.518 198.092 198.518 198.091 198.518C198.091 198.518 198.09 198.518 198.09 198.518C198.09 198.518 198.09 198.518 198.045 199.016C198 199.514 197.999 199.514 197.999 199.514C198 199.514 198 199.514 198 199.514C198 199.514 198 199.514 198.001 199.514C198.003 199.514 198.005 199.515 198.008 199.515C198.014 199.516 198.024 199.516 198.037 199.518C198.062 199.52 198.101 199.524 198.153 199.53C198.255 199.541 198.407 199.558 198.603 199.582C198.995 199.63 199.561 199.708 200.256 199.823C201.645 200.054 203.543 200.436 205.578 201.039C209.683 202.255 214.205 204.331 216.357 207.758L217.204 207.226ZM198.045 199.016C197.951 199.507 197.952 199.507 197.952 199.507C197.952 199.508 197.952 199.508 197.953 199.508C197.954 199.508 197.955 199.508 197.956 199.508C197.959 199.509 197.964 199.51 197.97 199.511C197.982 199.513 198 199.516 198.023 199.521C198.07 199.53 198.139 199.543 198.228 199.559C198.408 199.592 198.671 199.641 199.004 199.7C199.67 199.82 200.616 199.986 201.74 200.173C203.986 200.546 206.945 201.002 209.788 201.329C212.619 201.655 215.375 201.859 217.195 201.715C217.653 201.679 218.067 201.619 218.416 201.529C218.755 201.441 219.08 201.312 219.319 201.106C219.584 200.877 219.739 200.553 219.68 200.168C219.628 199.83 219.421 199.518 219.158 199.234L218.425 199.914C218.637 200.143 218.684 200.274 218.691 200.319C218.693 200.332 218.691 200.328 218.694 200.319C218.697 200.312 218.695 200.323 218.666 200.349C218.598 200.407 218.446 200.488 218.165 200.561C217.893 200.631 217.541 200.684 217.116 200.718C215.403 200.854 212.734 200.662 209.903 200.336C207.083 200.011 204.142 199.559 201.904 199.187C200.785 199.001 199.843 198.835 199.181 198.716C198.85 198.657 198.589 198.609 198.41 198.576C198.321 198.559 198.253 198.547 198.207 198.538C198.184 198.534 198.167 198.53 198.155 198.528C198.149 198.527 198.145 198.526 198.142 198.526C198.141 198.525 198.14 198.525 198.139 198.525C198.138 198.525 198.138 198.525 198.138 198.525C198.138 198.525 198.138 198.525 198.045 199.016ZM219.158 199.234C218.148 198.147 216.209 196.859 213.932 195.554C211.638 194.239 208.943 192.876 206.375 191.644C203.805 190.412 201.355 189.308 199.548 188.513C198.645 188.115 197.901 187.794 197.384 187.573C197.125 187.462 196.923 187.376 196.785 187.318C196.716 187.289 196.663 187.267 196.628 187.252C196.61 187.244 196.596 187.238 196.587 187.235C196.583 187.233 196.579 187.231 196.577 187.23C196.576 187.23 196.575 187.229 196.574 187.229C196.574 187.229 196.574 187.229 196.574 187.229C196.574 187.229 196.573 187.229 196.38 187.69C196.187 188.151 196.188 188.151 196.188 188.151C196.188 188.151 196.188 188.152 196.188 188.152C196.189 188.152 196.19 188.152 196.191 188.153C196.193 188.154 196.196 188.155 196.201 188.157C196.209 188.161 196.223 188.166 196.24 188.173C196.275 188.188 196.327 188.21 196.396 188.239C196.532 188.297 196.733 188.382 196.991 188.492C197.505 188.713 198.245 189.032 199.145 189.428C200.946 190.22 203.385 191.319 205.942 192.546C208.5 193.772 211.171 195.124 213.435 196.421C215.717 197.729 217.531 198.952 218.425 199.914L219.158 199.234ZM196.38 187.69C196.863 187.82 196.863 187.82 196.864 187.819C196.864 187.818 196.864 187.816 196.865 187.814C196.866 187.81 196.867 187.805 196.87 187.797C196.874 187.781 196.88 187.758 196.888 187.728C196.905 187.666 196.929 187.575 196.961 187.455C197.025 187.215 197.119 186.859 197.241 186.397C197.484 185.472 197.836 184.121 198.271 182.415C199.14 179.002 200.342 174.165 201.672 168.472C204.33 157.086 207.502 142.264 209.547 128.535C210.569 121.67 211.311 115.071 211.566 109.307C211.82 103.553 211.591 98.5912 210.648 95.0213C209.712 91.4798 208.001 89.0818 205.142 88.9473C203.756 88.882 202.181 89.3622 200.408 90.3857C198.632 91.411 196.622 93.0021 194.353 95.2137L195.051 95.9298C197.286 93.7514 199.23 92.2209 200.908 91.2517C202.591 90.2806 203.972 89.8933 205.095 89.9461C207.254 90.0478 208.77 91.8284 209.681 95.2767C210.584 98.6967 210.82 103.536 210.567 109.263C210.314 114.98 209.577 121.542 208.558 128.387C206.519 142.078 203.354 156.87 200.698 168.244C199.37 173.93 198.17 178.76 197.302 182.168C196.867 183.872 196.516 185.22 196.274 186.143C196.153 186.604 196.059 186.958 195.995 187.197C195.963 187.317 195.939 187.408 195.922 187.468C195.914 187.499 195.908 187.522 195.904 187.537C195.902 187.545 195.9 187.55 195.899 187.554C195.899 187.556 195.898 187.557 195.898 187.558C195.898 187.559 195.898 187.56 196.38 187.69ZM194.353 95.2137C176.214 112.895 173.309 130.429 172.316 145.142C171.817 152.517 171.8 159.084 170.607 164.671C169.424 170.216 167.097 174.705 162.025 177.91L162.559 178.756C167.924 175.365 170.364 170.601 171.585 164.879C172.797 159.199 172.822 152.485 173.313 145.209C174.299 130.619 177.161 113.369 195.051 95.9298L194.353 95.2137ZM162.292 178.333C161.982 177.94 161.982 177.94 161.982 177.94C161.982 177.94 161.982 177.94 161.982 177.94C161.982 177.941 161.981 177.941 161.98 177.942C161.978 177.944 161.975 177.946 161.97 177.95C161.961 177.957 161.946 177.968 161.927 177.983C161.889 178.012 161.831 178.056 161.755 178.111C161.604 178.221 161.381 178.379 161.102 178.563C160.542 178.932 159.757 179.407 158.853 179.832C157.014 180.696 154.826 181.287 153.043 180.566C151.317 179.869 149.738 177.835 149.359 172.869C148.98 167.912 149.816 160.182 152.766 148.374L151.796 148.131C148.837 159.973 147.971 167.828 148.362 172.945C148.752 178.053 150.414 180.583 152.668 181.494C154.864 182.381 157.395 181.623 159.279 180.737C160.237 180.286 161.065 179.785 161.652 179.398C161.947 179.204 162.182 179.037 162.344 178.919C162.426 178.859 162.489 178.812 162.532 178.779C162.554 178.762 162.571 178.749 162.582 178.74C162.588 178.736 162.593 178.732 162.596 178.73C162.598 178.729 162.599 178.728 162.6 178.727C162.6 178.727 162.601 178.726 162.601 178.726C162.601 178.726 162.602 178.725 162.292 178.333ZM152.766 148.374C155.697 136.64 160.593 130.148 165.794 126.326C171.01 122.493 176.58 121.307 180.983 120.275C183.161 119.765 185.108 119.281 186.529 118.499C187.25 118.103 187.86 117.619 188.302 116.994C188.748 116.364 189.005 115.619 189.058 114.734C189.161 112.993 188.473 110.704 186.896 107.597C185.31 104.475 182.791 100.459 179.142 95.2407L178.323 95.8137C181.962 101.019 184.45 104.99 186.004 108.05C187.565 111.125 188.146 113.213 188.06 114.674C188.017 115.391 187.814 115.953 187.486 116.416C187.155 116.883 186.677 117.277 186.048 117.623C184.769 118.326 182.967 118.783 180.755 119.301C176.378 120.327 170.608 121.548 165.202 125.52C159.78 129.504 154.773 136.215 151.796 148.131L152.766 148.374Z" fill="#1B191A"/>
<path d="M231.218 223.547C230.942 223.534 230.707 223.747 230.694 224.023C230.681 224.298 230.893 224.533 231.169 224.546L231.218 223.547ZM250.902 183.048L250.911 183.548C251.15 183.544 251.352 183.371 251.394 183.136L250.902 183.048ZM245.473 179.914L244.996 179.763C244.993 179.773 244.99 179.783 244.988 179.793L245.473 179.914ZM242.655 172.048L243.128 172.21L243.129 172.208L242.655 172.048ZM240.117 183.081L239.621 183.02C239.598 183.203 239.678 183.383 239.829 183.49C239.979 183.596 240.176 183.611 240.341 183.528L240.117 183.081ZM231.193 224.047C231.169 224.546 231.169 224.546 231.17 224.546C231.17 224.546 231.17 224.546 231.171 224.546C231.171 224.546 231.172 224.546 231.173 224.546C231.175 224.547 231.178 224.547 231.182 224.547C231.19 224.547 231.2 224.548 231.214 224.548C231.241 224.549 231.28 224.55 231.331 224.551C231.433 224.553 231.581 224.555 231.768 224.553C232.143 224.548 232.679 224.529 233.328 224.472C234.626 224.356 236.387 224.085 238.234 223.459C241.934 222.204 246.024 219.503 247.345 213.761L246.371 213.537C245.153 218.828 241.411 221.326 237.913 222.512C236.162 223.106 234.483 223.365 233.24 223.476C232.619 223.531 232.109 223.549 231.757 223.553C231.58 223.555 231.443 223.553 231.352 223.551C231.306 223.55 231.271 223.549 231.248 223.549C231.237 223.548 231.229 223.548 231.224 223.548C231.221 223.548 231.219 223.547 231.218 223.547C231.218 223.547 231.217 223.547 231.217 223.547C231.217 223.547 231.217 223.547 231.217 223.547C231.217 223.547 231.218 223.547 231.193 224.047ZM247.345 213.761C249.88 202.744 260.035 169.626 260.355 168.51L259.394 168.235C259.09 169.294 248.913 202.487 246.371 213.537L247.345 213.761ZM260.355 168.51C260.434 168.235 260.384 167.944 260.299 167.703C260.209 167.451 260.061 167.198 259.87 166.971C259.491 166.52 258.892 166.117 258.145 166.095C257.384 166.073 256.588 166.449 255.831 167.32C255.081 168.185 254.339 169.569 253.654 171.663L254.604 171.974C255.269 169.944 255.958 168.7 256.587 167.976C257.209 167.258 257.739 167.084 258.116 167.095C258.507 167.107 258.858 167.321 259.105 167.614C259.227 167.76 259.311 167.91 259.356 168.037C259.405 168.176 259.393 168.238 259.394 168.235L260.355 168.51ZM253.654 171.663C252.303 175.793 251.493 178.61 251.02 180.398C250.784 181.292 250.632 181.928 250.539 182.344C250.492 182.551 250.46 182.703 250.44 182.805C250.429 182.856 250.422 182.893 250.417 182.919C250.415 182.932 250.413 182.942 250.411 182.949C250.411 182.952 250.41 182.955 250.41 182.957C250.41 182.958 250.41 182.959 250.409 182.96C250.409 182.96 250.409 182.96 250.409 182.96C250.409 182.96 250.409 182.961 250.409 182.961C250.409 182.961 250.409 182.961 250.902 183.048C251.394 183.136 251.394 183.136 251.394 183.136C251.394 183.136 251.394 183.136 251.394 183.136C251.394 183.136 251.394 183.136 251.394 183.136C251.394 183.136 251.394 183.135 251.394 183.135C251.394 183.134 251.394 183.132 251.395 183.13C251.396 183.125 251.397 183.117 251.399 183.106C251.404 183.084 251.41 183.05 251.42 183.003C251.439 182.909 251.469 182.764 251.514 182.563C251.605 182.161 251.754 181.536 251.987 180.653C252.454 178.887 253.258 176.089 254.604 171.974L253.654 171.663ZM250.902 183.048C250.892 182.548 250.893 182.548 250.895 182.548C250.895 182.548 250.897 182.548 250.897 182.548C250.899 182.548 250.901 182.548 250.903 182.548C250.906 182.548 250.91 182.548 250.913 182.548C250.92 182.549 250.926 182.549 250.932 182.549C250.944 182.55 250.955 182.552 250.965 182.553C250.984 182.557 250.998 182.562 251.008 182.566C251.031 182.577 251.017 182.579 250.984 182.533C250.908 182.429 250.748 182.098 250.733 181.229C250.704 179.497 251.257 175.907 253.683 168.574L252.733 168.26C250.303 175.608 249.702 179.334 249.734 181.246C249.75 182.2 249.923 182.775 250.174 183.12C250.304 183.299 250.452 183.412 250.595 183.477C250.665 183.509 250.729 183.527 250.783 183.537C250.811 183.542 250.835 183.545 250.857 183.546C250.867 183.547 250.877 183.548 250.886 183.548C250.891 183.548 250.895 183.548 250.899 183.548C250.901 183.548 250.904 183.548 250.905 183.548C250.906 183.548 250.908 183.548 250.908 183.548C250.91 183.548 250.911 183.548 250.902 183.048ZM253.683 168.574C254.292 166.732 254.688 165.342 254.904 164.342C255.012 163.843 255.079 163.429 255.102 163.099C255.125 162.788 255.116 162.479 255.014 162.238C254.959 162.106 254.859 161.955 254.683 161.862C254.503 161.767 254.318 161.771 254.173 161.808C253.918 161.872 253.69 162.06 253.51 162.236C253.123 162.614 252.654 163.25 252.147 164.042C250.109 167.226 247.116 173.473 245.696 178.412L246.657 178.688C248.049 173.848 251 167.689 252.989 164.581C253.489 163.8 253.907 163.245 254.208 162.951C254.372 162.791 254.439 162.772 254.419 162.777C254.391 162.784 254.309 162.796 254.215 162.746C254.126 162.699 254.096 162.632 254.093 162.626C254.091 162.622 254.102 162.648 254.108 162.723C254.114 162.795 254.114 162.895 254.105 163.027C254.086 163.292 254.03 163.655 253.927 164.131C253.721 165.08 253.338 166.432 252.733 168.26L253.683 168.574ZM245.696 178.412C244.992 180.859 244.599 182.155 244.406 182.729C244.357 182.874 244.325 182.961 244.306 183.006C244.294 183.034 244.296 183.024 244.311 183.001C244.312 182.999 244.348 182.937 244.422 182.88C244.461 182.851 244.558 182.786 244.702 182.781C244.874 182.775 245.011 182.856 245.092 182.948C245.16 183.025 245.186 183.102 245.195 183.133C245.206 183.169 245.21 183.199 245.211 183.214C245.214 183.244 245.213 183.264 245.213 183.266C245.213 183.271 245.213 183.264 245.217 183.236C245.224 183.185 245.239 183.105 245.26 182.997C245.346 182.568 245.519 181.831 245.673 181.194C245.75 180.877 245.821 180.587 245.873 180.377C245.899 180.272 245.92 180.186 245.935 180.127C245.942 180.098 245.948 180.075 245.952 180.059C245.954 180.052 245.955 180.046 245.956 180.042C245.957 180.04 245.957 180.038 245.958 180.037C245.958 180.037 245.958 180.037 245.958 180.036C245.958 180.036 245.958 180.036 245.958 180.036C245.958 180.036 245.958 180.036 245.473 179.914C244.988 179.793 244.988 179.793 244.988 179.793C244.988 179.793 244.988 179.793 244.988 179.793C244.988 179.793 244.988 179.794 244.988 179.794C244.987 179.795 244.987 179.797 244.986 179.799C244.985 179.803 244.984 179.809 244.982 179.817C244.978 179.833 244.972 179.856 244.965 179.886C244.95 179.945 244.929 180.031 244.902 180.137C244.85 180.348 244.778 180.64 244.701 180.959C244.548 181.594 244.37 182.349 244.279 182.802C244.257 182.914 244.238 183.016 244.227 183.096C244.222 183.134 244.216 183.179 244.214 183.223C244.213 183.243 244.212 183.279 244.217 183.321C244.219 183.342 244.224 183.376 244.236 183.417C244.246 183.452 244.273 183.532 244.343 183.61C244.426 183.704 244.565 183.787 244.739 183.78C244.885 183.775 244.985 183.709 245.026 183.677C245.106 183.617 245.15 183.546 245.159 183.531C245.189 183.482 245.213 183.429 245.228 183.394C245.261 183.313 245.303 183.197 245.353 183.049C245.555 182.45 245.954 181.131 246.657 178.688L245.696 178.412ZM245.473 179.914C245.95 180.065 245.95 180.065 245.95 180.065C245.95 180.065 245.95 180.065 245.95 180.065C245.95 180.064 245.95 180.064 245.95 180.063C245.951 180.062 245.951 180.06 245.952 180.057C245.954 180.052 245.956 180.044 245.96 180.033C245.966 180.013 245.976 179.982 245.988 179.942C246.014 179.861 246.05 179.743 246.097 179.591C246.191 179.288 246.324 178.851 246.483 178.316C246.8 177.245 247.222 175.78 247.636 174.201C248.05 172.623 248.458 170.925 248.749 169.393C249.037 167.874 249.218 166.472 249.155 165.504L248.157 165.569C248.211 166.399 248.053 167.693 247.766 169.207C247.482 170.707 247.08 172.38 246.669 173.947C246.258 175.513 245.84 176.968 245.524 178.031C245.366 178.563 245.234 178.996 245.141 179.297C245.095 179.447 245.059 179.564 245.034 179.643C245.022 179.683 245.012 179.713 245.006 179.733C245.003 179.743 245 179.751 244.999 179.756C244.998 179.758 244.997 179.76 244.997 179.762C244.997 179.762 244.996 179.763 244.996 179.763C244.996 179.763 244.996 179.763 244.996 179.763C244.996 179.763 244.996 179.763 245.473 179.914ZM249.155 165.504C249.123 165.02 249.031 164.602 248.848 164.285C248.653 163.946 248.346 163.716 247.948 163.685C247.587 163.656 247.236 163.799 246.929 163.993C246.614 164.192 246.292 164.48 245.971 164.829C244.694 166.215 243.223 168.812 242.182 171.888L243.129 172.208C244.143 169.213 245.555 166.756 246.707 165.506C246.992 165.195 247.248 164.975 247.464 164.838C247.687 164.697 247.817 164.678 247.87 164.682C247.884 164.683 247.922 164.68 247.982 164.785C248.055 164.911 248.13 165.154 248.157 165.569L249.155 165.504ZM242.183 171.886C240.943 175.498 240.084 179.23 239.621 183.02L240.613 183.142C241.068 179.42 241.911 175.756 243.128 172.21L242.183 171.886ZM240.117 183.081C240.611 183.158 240.611 183.158 240.611 183.158C240.611 183.158 240.611 183.158 240.611 183.158C240.611 183.157 240.611 183.157 240.611 183.156C240.612 183.154 240.612 183.152 240.612 183.149C240.613 183.143 240.615 183.135 240.616 183.123C240.62 183.1 240.625 183.066 240.632 183.021C240.646 182.931 240.666 182.799 240.692 182.628C240.744 182.288 240.817 181.795 240.906 181.185C241.084 179.965 241.321 178.278 241.562 176.408C242.042 172.675 242.537 168.182 242.583 165.223L241.584 165.207C241.538 168.103 241.05 172.544 240.57 176.28C240.33 178.144 240.093 179.825 239.917 181.041C239.828 181.649 239.755 182.14 239.703 182.479C239.678 182.648 239.658 182.78 239.644 182.869C239.637 182.913 239.632 182.947 239.628 182.97C239.626 182.981 239.625 182.99 239.624 182.995C239.624 182.998 239.623 183 239.623 183.002C239.623 183.003 239.623 183.003 239.623 183.003C239.623 183.004 239.623 183.004 239.623 183.004C239.623 183.004 239.623 183.004 240.117 183.081ZM242.583 165.223C242.589 164.848 242.58 164.541 242.554 164.303C242.54 164.185 242.522 164.072 242.494 163.971C242.469 163.878 242.426 163.757 242.343 163.65C242.25 163.53 242.082 163.401 241.846 163.41C241.645 163.417 241.503 163.523 241.431 163.587C241.285 163.717 241.166 163.914 241.07 164.097C240.671 164.86 240.129 166.474 239.537 168.396C238.336 172.302 236.888 177.624 235.858 180.656L236.805 180.978C237.838 177.936 239.312 172.53 240.493 168.69C241.093 166.739 241.608 165.225 241.956 164.561C242.047 164.387 242.096 164.333 242.096 164.334C242.091 164.338 242.073 164.353 242.041 164.369C242.009 164.386 241.954 164.407 241.882 164.409C241.708 164.416 241.595 164.317 241.551 164.261C241.518 164.218 241.518 164.194 241.529 164.235C241.539 164.268 241.55 164.326 241.56 164.414C241.58 164.592 241.589 164.851 241.584 165.207L242.583 165.223ZM235.858 180.656C235.601 181.413 235.41 181.875 235.278 182.114C235.201 182.254 235.184 182.241 235.239 182.204C235.281 182.176 235.405 182.11 235.573 182.154C235.731 182.196 235.802 182.305 235.819 182.334C235.846 182.379 235.828 182.375 235.815 182.239C235.804 182.126 235.8 181.969 235.804 181.765C235.812 181.36 235.852 180.815 235.921 180.167C236.195 177.574 236.897 173.483 237.58 170.561L236.606 170.333C235.915 173.292 235.205 177.423 234.926 180.062C234.857 180.722 234.813 181.299 234.804 181.745C234.799 181.968 234.803 182.168 234.82 182.336C234.834 182.479 234.862 182.678 234.955 182.837C235.005 182.923 235.115 183.067 235.317 183.121C235.527 183.177 235.701 183.098 235.797 183.034C235.961 182.924 236.075 182.739 236.153 182.598C236.331 182.275 236.546 181.739 236.805 180.978L235.858 180.656ZM237.58 170.561C237.931 169.059 238.125 167.539 238.183 166.227C238.241 164.929 238.167 163.785 237.951 163.061C237.896 162.876 237.827 162.699 237.736 162.548C237.648 162.401 237.518 162.243 237.329 162.146C237.119 162.039 236.89 162.035 236.679 162.115C236.487 162.187 236.329 162.322 236.201 162.465C235.944 162.752 235.694 163.203 235.442 163.8C235.186 164.406 234.912 165.202 234.623 166.209L235.584 166.485C235.867 165.501 236.128 164.746 236.363 164.189C236.603 163.621 236.801 163.294 236.946 163.132C237.018 163.052 237.049 163.044 237.033 163.05C236.999 163.063 236.933 163.067 236.874 163.037C236.835 163.017 236.843 163.004 236.879 163.063C236.912 163.118 236.952 163.209 236.993 163.346C237.16 163.907 237.24 164.915 237.184 166.183C237.129 167.435 236.942 168.894 236.606 170.333L237.58 170.561ZM234.623 166.209C232.329 174.19 227.168 191.022 216.89 201.652L217.608 202.347C228.083 191.515 233.297 174.444 235.584 166.485L234.623 166.209ZM216.89 201.652C215.573 203.013 214.275 204.622 212.951 206.306C211.622 207.996 210.268 209.761 208.823 211.466C205.929 214.878 202.722 217.98 198.786 219.613C191.004 222.841 180.016 220.437 162.407 201.862L161.681 202.55C179.332 221.168 190.758 224.026 199.169 220.536C203.331 218.81 206.664 215.557 209.585 212.112C211.047 210.389 212.418 208.601 213.737 206.924C215.06 205.24 216.331 203.668 217.608 202.347L216.89 201.652ZM162.407 201.862C153.585 192.556 144.404 183.511 135.778 176.046C127.161 168.589 119.068 162.682 112.425 159.682C109.106 158.183 106.102 157.389 103.551 157.525C100.97 157.662 98.8649 158.755 97.4139 160.973C95.9824 163.161 95.2171 166.399 95.1685 170.787C95.1198 175.183 95.7902 180.787 97.2828 187.754L98.2606 187.545C96.7765 180.617 96.1208 175.093 96.1684 170.798C96.2161 166.495 96.9696 163.478 98.2507 161.52C99.5122 159.592 101.313 158.646 103.604 158.523C105.926 158.4 108.759 159.124 112.014 160.594C118.52 163.531 126.524 169.359 135.124 176.802C143.716 184.238 152.872 193.258 161.681 202.55L162.407 201.862ZM97.2828 187.754C103.259 215.648 116.336 232.271 129.889 240.034C143.419 247.783 157.478 246.707 165.215 239.057L164.512 238.346C157.193 245.582 143.661 246.769 130.386 239.166C117.134 231.575 104.192 215.229 98.2606 187.545L97.2828 187.754Z" fill="#1B191A"/>
<path d="M108.361 166.492C108.609 166.372 108.714 166.074 108.594 165.825C108.474 165.576 108.175 165.472 107.927 165.591L108.361 166.492ZM108.144 166.042C107.927 165.591 107.926 165.591 107.926 165.592C107.926 165.592 107.925 165.592 107.924 165.593C107.922 165.594 107.919 165.595 107.915 165.597C107.907 165.601 107.895 165.607 107.879 165.614C107.847 165.63 107.798 165.653 107.734 165.683C107.606 165.743 107.417 165.832 107.17 165.945C106.676 166.172 105.954 166.498 105.043 166.893C103.221 167.683 100.645 168.748 97.6327 169.848C91.5993 172.052 83.8481 174.383 76.8976 174.942C69.9062 175.503 63.9558 174.257 61.2015 169.593C59.8174 167.249 59.1922 163.973 59.7054 159.476C60.2187 154.979 61.8674 149.297 64.9894 142.179L64.0736 141.778C60.929 148.947 59.2406 154.731 58.7119 159.363C58.1831 163.996 58.8109 167.511 60.3404 170.101C63.4135 175.306 69.9327 176.504 76.9777 175.938C84.0635 175.369 91.9153 173.001 97.9758 170.788C101.01 169.679 103.604 168.607 105.44 167.81C106.359 167.412 107.087 167.083 107.587 166.854C107.837 166.739 108.03 166.649 108.16 166.587C108.226 166.557 108.275 166.533 108.309 166.517C108.326 166.509 108.339 166.503 108.347 166.499C108.351 166.497 108.355 166.495 108.357 166.494C108.358 166.493 108.359 166.493 108.36 166.493C108.36 166.492 108.361 166.492 108.144 166.042Z" fill="#1B191A"/>
<path d="M132.298 211.648C132.569 211.593 132.744 211.33 132.69 211.059C132.636 210.788 132.372 210.613 132.102 210.667L132.298 211.648ZM45.9837 126.441C45.5944 126.128 45.5942 126.128 45.5937 126.128C45.5934 126.129 45.5928 126.13 45.5922 126.13C45.5908 126.132 45.5888 126.135 45.5863 126.138C45.5812 126.144 45.5738 126.153 45.564 126.166C45.5445 126.19 45.5158 126.226 45.4784 126.274C45.4035 126.369 45.2936 126.51 45.1526 126.695C44.8706 127.063 44.4638 127.605 43.9623 128.302C42.9596 129.696 41.5779 131.709 40.0587 134.193C37.0223 139.156 33.4272 146.012 31.2173 153.558C29.0082 161.101 28.1716 169.373 30.705 177.141C33.244 184.927 39.1457 192.137 50.2763 197.578L50.7154 196.68C39.7892 191.338 34.0984 184.321 31.6557 176.831C29.2074 169.324 29.9999 161.272 32.177 153.839C34.3533 146.408 37.9014 139.636 40.9117 134.715C42.4159 132.256 43.7834 130.263 44.7741 128.886C45.2694 128.198 45.6703 127.664 45.9468 127.302C46.0851 127.121 46.1922 126.984 46.2645 126.892C46.3006 126.846 46.3281 126.811 46.3463 126.789C46.3554 126.777 46.3622 126.769 46.3667 126.763C46.3689 126.76 46.3706 126.758 46.3716 126.757C46.3721 126.756 46.3725 126.756 46.3727 126.755C46.3729 126.755 46.3729 126.755 45.9837 126.441ZM50.2763 197.578C72.4048 208.395 92.8988 211.915 107.863 212.729C115.346 213.136 121.447 212.867 125.681 212.496C127.798 212.31 129.448 212.099 130.571 211.934C131.133 211.851 131.563 211.78 131.853 211.729C131.998 211.704 132.108 211.684 132.183 211.67C132.22 211.663 132.249 211.657 132.268 211.654C132.277 211.652 132.285 211.65 132.29 211.649C132.292 211.649 132.294 211.648 132.296 211.648C132.296 211.648 132.297 211.648 132.297 211.648C132.298 211.648 132.298 211.648 132.2 211.157C132.102 210.667 132.102 210.667 132.102 210.667C132.101 210.667 132.101 210.667 132.101 210.667C132.1 210.668 132.098 210.668 132.096 210.668C132.092 210.669 132.086 210.67 132.077 210.672C132.06 210.675 132.034 210.68 131.999 210.687C131.928 210.7 131.822 210.72 131.681 210.744C131.399 210.793 130.978 210.863 130.426 210.944C129.321 211.107 127.69 211.316 125.593 211.5C121.401 211.868 115.347 212.135 107.918 211.731C93.0586 210.922 72.7006 207.427 50.7154 196.68L50.2763 197.578Z" fill="#1B191A"/>
<path d="M140.691 92.8825C140.843 93.1127 141.154 93.1756 141.384 93.023C141.614 92.8704 141.677 92.5602 141.524 92.33L140.691 92.8825ZM135.604 84.3039L135.132 84.1393C135.08 84.2869 135.101 84.4499 135.187 84.5802L135.604 84.3039ZM140.505 70.24L140.977 70.4046L140.977 70.4045L140.505 70.24ZM134.439 68.1257L134.911 68.2907L134.911 68.2904L134.439 68.1257ZM128.45 85.2579L127.978 85.0929C127.939 85.205 127.941 85.3273 127.984 85.4381L128.45 85.2579ZM132.362 95.3839L131.896 95.5641C131.898 95.5689 131.9 95.5736 131.902 95.5784L132.362 95.3839ZM141.524 92.33L136.021 84.0276L135.187 84.5802L140.691 92.8825L141.524 92.33ZM136.076 84.4684L140.977 70.4046L140.033 70.0755L135.132 84.1393L136.076 84.4684ZM140.977 70.4045C141.153 69.9001 141.218 69.3637 141.167 68.832L140.171 68.9276C140.208 69.3157 140.161 69.7073 140.033 70.0755L140.977 70.4045ZM141.167 68.832C141.115 68.3003 140.95 67.786 140.682 67.3242L139.817 67.8268C140.013 68.1639 140.134 68.5394 140.171 68.9276L141.167 68.832ZM140.682 67.3242C140.413 66.8625 140.048 66.4642 139.611 66.1568L139.036 66.9746C139.355 67.199 139.621 67.4897 139.817 67.8268L140.682 67.3242ZM139.611 66.1568C139.174 65.8494 138.676 65.6401 138.151 65.5432L137.97 66.5266C138.353 66.5973 138.717 66.7501 139.036 66.9746L139.611 66.1568ZM138.154 65.5437C137.282 65.3779 136.38 65.5308 135.611 65.9745L136.111 66.8405C136.672 66.5167 137.331 66.4051 137.967 66.5261L138.154 65.5437ZM135.611 65.9745C134.843 66.4182 134.259 67.1232 133.967 67.961L134.911 68.2904C135.124 67.6789 135.55 67.1643 136.111 66.8405L135.611 65.9745ZM133.967 67.9607L127.978 85.0929L128.922 85.4229L134.911 68.2907L133.967 67.9607ZM127.984 85.4381L131.896 95.5641L132.829 95.2037L128.916 85.0777L127.984 85.4381ZM132.362 95.3839C131.902 95.5784 131.901 95.5782 131.901 95.578C131.901 95.578 131.901 95.5779 131.901 95.5779C131.901 95.5779 131.901 95.5781 131.902 95.5784C131.902 95.5792 131.903 95.5807 131.903 95.583C131.905 95.5875 131.908 95.5949 131.912 95.6052C131.921 95.6259 131.933 95.6582 131.95 95.7016C131.982 95.7885 132.03 95.92 132.086 96.0929C132.199 96.4388 132.348 96.9497 132.487 97.5993C132.766 98.8991 133.007 100.75 132.852 102.945C132.542 107.319 130.654 113.098 124.256 118.623L124.909 119.38C131.52 113.671 133.522 107.641 133.85 103.015C134.013 100.709 133.76 98.7625 133.465 97.3893C133.317 96.7025 133.159 96.1581 133.037 95.7829C132.976 95.5952 132.923 95.4497 132.886 95.3498C132.867 95.2998 132.852 95.2611 132.841 95.2342C132.836 95.2208 132.831 95.2103 132.828 95.2028C132.827 95.1991 132.826 95.1961 132.825 95.1938C132.824 95.1927 132.824 95.1918 132.823 95.191C132.823 95.1907 132.823 95.1902 132.823 95.1901C132.823 95.1897 132.823 95.1894 132.362 95.3839Z" fill="#1B191A"/>
<path d="M141.187 71.0528L141.648 71.2462C141.651 71.2375 141.655 71.2287 141.658 71.2198L141.187 71.0528ZM142.103 69.7754L141.794 69.3822L141.794 69.3824L142.103 69.7754ZM148.666 64.6186L148.975 65.0118L148.975 65.0116L148.666 64.6186ZM152.17 69.0769L151.862 68.6834L151.862 68.6835L152.17 69.0769ZM146.254 73.7179L145.946 73.3245L145.945 73.3249L146.254 73.7179ZM145.153 75.1243L144.723 74.8681C144.696 74.9142 144.676 74.9645 144.664 75.0169L145.153 75.1243ZM142.428 85.1804C142.369 85.4501 142.539 85.7168 142.809 85.7761C143.079 85.8355 143.345 85.665 143.405 85.3953L142.428 85.1804ZM136.678 83.0927L141.648 71.2462L140.725 70.8594L135.756 82.7059L136.678 83.0927ZM141.658 71.2198C141.805 70.805 142.066 70.4404 142.412 70.1683L141.794 69.3824C141.299 69.7715 140.925 70.2928 140.715 70.8858L141.658 71.2198ZM142.412 70.1685L148.975 65.0118L148.357 64.2255L141.794 69.3822L142.412 70.1685ZM148.975 65.0116C149.242 64.8015 149.552 64.6522 149.883 64.5741L149.654 63.6008C149.181 63.7123 148.739 63.9255 148.357 64.2256L148.975 65.0116ZM149.883 64.5741C150.214 64.4961 150.558 64.4912 150.891 64.5597L151.093 63.5803C150.617 63.4824 150.126 63.4894 149.654 63.6008L149.883 64.5741ZM150.891 64.5597C151.224 64.6283 151.538 64.7687 151.811 64.9712L152.406 64.1678C152.016 63.8787 151.568 63.6782 151.093 63.5803L150.891 64.5597ZM151.811 64.9712C152.084 65.1736 152.309 65.4332 152.472 65.7318L153.35 65.254C153.118 64.8276 152.796 64.4569 152.406 64.1678L151.811 64.9712ZM152.472 65.7318C152.736 66.2165 152.819 66.779 152.707 67.3193L153.687 67.5217C153.846 66.7498 153.727 65.9464 153.35 65.254L152.472 65.7318ZM152.707 67.3193C152.596 67.8596 152.296 68.3429 151.862 68.6834L152.479 69.4703C153.099 68.9839 153.527 68.2935 153.687 67.5217L152.707 67.3193ZM151.862 68.6835L145.946 73.3245L146.563 74.1113L152.479 69.4703L151.862 68.6835ZM145.945 73.3249C145.485 73.6869 145.149 74.1547 144.723 74.8681L145.582 75.3805C145.995 74.6876 146.255 74.3538 146.563 74.1109L145.945 73.3249ZM144.664 75.0169L142.428 85.1804L143.405 85.3953L145.641 75.2318L144.664 75.0169Z" fill="#1B191A"/>
<path d="M146.29 75.6048L145.818 75.4385L145.815 75.4468L146.29 75.6048ZM147.202 74.3274L146.893 73.9342L146.891 73.9355L147.202 74.3274ZM153.765 69.1706L154.074 69.5638L154.074 69.5633L153.765 69.1706ZM157.269 73.6289L157.578 74.0223L157.578 74.0221L157.269 73.6289ZM151.353 78.2699L151.661 78.664L151.661 78.6633L151.353 78.2699ZM150.483 79.4162L150.021 79.2259C150.019 79.2309 150.017 79.2361 150.015 79.2412L150.483 79.4162ZM146.609 88.3593C146.512 88.618 146.644 88.906 146.902 89.0026C147.161 89.0993 147.449 88.9679 147.546 88.7092L146.609 88.3593ZM143.457 85.6896L146.764 75.7629L145.815 75.4468L142.508 85.3736L143.457 85.6896ZM146.761 75.7711C146.907 75.3568 147.168 74.9921 147.512 74.7193L146.891 73.9355C146.399 74.3254 146.027 74.8464 145.818 75.4385L146.761 75.7711ZM147.51 74.7205L154.074 69.5638L153.456 68.7775L146.893 73.9342L147.51 74.7205ZM154.074 69.5633C154.341 69.3529 154.651 69.2033 154.982 69.1251L154.752 68.1519C154.279 68.2637 153.837 68.4773 153.455 68.7779L154.074 69.5633ZM154.982 69.1251C155.313 69.0469 155.657 69.0419 155.99 69.1105L156.191 68.131C155.716 68.0331 155.224 68.0402 154.752 68.1519L154.982 69.1251ZM155.99 69.1105C156.323 69.1791 156.637 69.3196 156.91 69.5222L157.506 68.7191C157.116 68.4297 156.667 68.229 156.191 68.131L155.99 69.1105ZM156.91 69.5222C157.183 69.7248 157.408 69.9845 157.57 70.2834L158.449 69.8065C158.218 69.3796 157.896 69.0085 157.506 68.7191L156.91 69.5222ZM157.57 70.2835C157.834 70.7684 157.917 71.3308 157.805 71.8711L158.784 72.0735C158.944 71.3019 158.825 70.4988 158.449 69.8063L157.57 70.2835ZM157.805 71.8711C157.693 72.4115 157.394 72.8948 156.96 73.2356L157.578 74.0221C158.197 73.5354 158.625 72.8452 158.784 72.0735L157.805 71.8711ZM156.96 73.2355L151.044 77.8766L151.661 78.6633L157.578 74.0223L156.96 73.2355ZM151.045 77.8759C150.592 78.2295 150.239 78.6947 150.021 79.2259L150.946 79.6064C151.098 79.2356 151.345 78.9108 151.661 78.664L151.045 77.8759ZM150.015 79.2412L146.609 88.3593L147.546 88.7092L150.952 79.5911L150.015 79.2412Z" fill="#1B191A"/>
<path d="M151.622 79.4142L152.076 79.6236C152.082 79.6103 152.088 79.5966 152.093 79.5827L151.622 79.4142ZM152.541 78.1367L152.232 77.7435L152.232 77.744L152.541 78.1367ZM159.104 72.9799L159.413 73.3731L159.414 73.3724L159.104 72.9799ZM163.345 73.8472L163.784 73.609L163.784 73.6079L163.345 73.8472ZM162.599 77.4265L162.291 77.0326L162.291 77.0327L162.599 77.4265ZM156.676 82.0629L156.368 81.6691L156.366 81.6705L156.676 82.0629ZM155.806 83.2091L156.259 83.4209C156.262 83.4146 156.265 83.4082 156.268 83.4018L155.806 83.2091ZM151.528 91.1777C151.411 91.4279 151.519 91.7255 151.769 91.8425C152.019 91.9594 152.317 91.8515 152.434 91.6013L151.528 91.1777ZM147.688 89.1332L152.076 79.6236L151.168 79.2047L146.78 88.7142L147.688 89.1332ZM152.093 79.5827C152.242 79.1675 152.504 78.8024 152.851 78.5294L152.232 77.744C151.738 78.1333 151.364 78.6536 151.152 79.2456L152.093 79.5827ZM152.85 78.5299L159.413 73.3731L158.795 72.5868L152.232 77.7435L152.85 78.5299ZM159.414 73.3724C159.68 73.1622 159.99 73.0126 160.32 72.9342L160.089 71.9613C159.617 72.0733 159.175 72.287 158.795 72.5875L159.414 73.3724ZM160.32 72.9342C160.65 72.8558 160.993 72.8504 161.326 72.9184L161.526 71.9387C161.051 71.8415 160.56 71.8492 160.089 71.9613L160.32 72.9342ZM161.326 72.9184C161.658 72.9864 161.972 73.1262 162.245 73.3279L162.839 72.5239C162.449 72.2355 162.001 72.0358 161.526 71.9387L161.326 72.9184ZM162.245 73.3279C162.518 73.5297 162.743 73.7886 162.906 74.0866L163.784 73.6079C163.551 73.1821 163.229 72.8122 162.839 72.5239L162.245 73.3279ZM162.905 74.0854C163.167 74.5699 163.25 75.1318 163.137 75.6713L164.116 75.8752C164.277 75.1043 164.159 74.3014 163.784 73.609L162.905 74.0854ZM163.137 75.6713C163.025 76.2108 162.725 76.6931 162.291 77.0326L162.907 77.8203C163.527 77.3353 163.956 76.6461 164.116 75.8752L163.137 75.6713ZM162.291 77.0327L156.368 81.6691L156.984 82.4566L162.907 77.8202L162.291 77.0327ZM156.366 81.6705C155.917 82.0252 155.566 82.4883 155.345 83.0163L156.268 83.4018C156.423 83.0305 156.67 82.7047 156.986 82.4552L156.366 81.6705ZM155.353 82.9973L151.528 91.1777L152.434 91.6013L156.259 83.4209L155.353 82.9973Z" fill="#1B191A"/>
<path d="M151.583 91.006C151.435 91.2392 151.504 91.5481 151.737 91.6961C151.97 91.8441 152.279 91.7751 152.427 91.542L151.583 91.006ZM157.033 83.3537L157.455 83.6217C157.475 83.59 157.491 83.5562 157.504 83.5208L157.033 83.3537ZM157.771 82.3271L158.08 82.7206L158.08 82.72L157.771 82.3271ZM163.043 78.1782L163.352 78.5711L163.352 78.5708L163.043 78.1782ZM165.853 81.7598L165.545 81.3657L165.545 81.3662L165.853 81.7598ZM161.097 85.4844L161.404 85.8794L161.406 85.878L161.097 85.4844ZM160.394 86.4056L160.856 86.5976L160.856 86.5972L160.394 86.4056ZM157.176 94.1407L157.61 94.3889C157.62 94.3708 157.629 94.352 157.637 94.3328L157.176 94.1407ZM150.144 106.44L149.71 106.191C149.671 106.259 149.649 106.334 149.645 106.411L150.144 106.44ZM152.427 91.542L157.455 83.6217L156.611 83.0857L151.583 91.006L152.427 91.542ZM157.504 83.5208C157.616 83.2049 157.816 82.9274 158.08 82.7206L157.463 81.9335C157.05 82.2572 156.737 82.6918 156.562 83.1866L157.504 83.5208ZM158.08 82.72L163.352 78.5711L162.734 77.7853L157.462 81.9341L158.08 82.72ZM163.352 78.5708C163.556 78.4106 163.791 78.2967 164.043 78.2371L163.813 77.2639C163.419 77.357 163.051 77.5351 162.733 77.7856L163.352 78.5708ZM164.043 78.2371C164.295 78.1775 164.557 78.1738 164.811 78.226L165.013 77.2466C164.616 77.1649 164.207 77.1708 163.813 77.2639L164.043 78.2371ZM164.811 78.226C165.064 78.2783 165.303 78.3854 165.511 78.5397L166.107 77.7369C165.782 77.4957 165.409 77.3283 165.013 77.2466L164.811 78.226ZM165.511 78.5397C165.719 78.694 165.89 78.8919 166.014 79.1195L166.893 78.6433C166.7 78.2875 166.432 77.9782 166.107 77.7369L165.511 78.5397ZM166.014 79.1197C166.214 79.489 166.277 79.9172 166.191 80.3285L167.17 80.5325C167.304 79.8898 167.206 79.2204 166.893 78.6431L166.014 79.1197ZM166.191 80.3285C166.105 80.7397 165.876 81.1072 165.545 81.3657L166.161 82.1539C166.678 81.7497 167.036 81.1753 167.17 80.5325L166.191 80.3285ZM165.545 81.3662L160.789 85.0907L161.406 85.878L166.161 82.1535L165.545 81.3662ZM160.791 85.0894C160.412 85.3834 160.116 85.771 159.932 86.214L160.856 86.5972C160.973 86.3144 161.162 86.0671 161.404 85.8794L160.791 85.0894ZM159.932 86.2135L156.714 93.9486L157.637 94.3328L160.856 86.5976L159.932 86.2135ZM156.742 93.8925L149.71 106.191L150.578 106.688L157.61 94.3889L156.742 93.8925ZM150.144 106.44C149.645 106.411 149.645 106.411 149.645 106.412C149.645 106.412 149.645 106.413 149.645 106.413C149.644 106.415 149.644 106.417 149.644 106.421C149.644 106.427 149.643 106.437 149.642 106.45C149.641 106.477 149.638 106.516 149.635 106.568C149.629 106.672 149.619 106.826 149.606 107.028C149.58 107.432 149.541 108.024 149.485 108.78C149.375 110.29 149.203 112.45 148.958 115.047C148.466 120.241 147.681 127.178 146.504 134.157C145.325 141.142 143.759 148.143 141.712 153.477C140.688 156.145 139.554 158.369 138.307 159.961C137.057 161.557 135.74 162.462 134.354 162.62L134.468 163.614C136.229 163.413 137.763 162.278 139.094 160.578C140.428 158.875 141.604 156.547 142.645 153.835C144.728 148.407 146.308 141.329 147.49 134.323C148.673 127.312 149.461 120.349 149.953 115.141C150.199 112.536 150.372 110.369 150.483 108.853C150.538 108.094 150.578 107.499 150.604 107.093C150.617 106.889 150.627 106.734 150.633 106.628C150.637 106.576 150.639 106.536 150.641 106.509C150.641 106.496 150.642 106.485 150.642 106.479C150.643 106.475 150.643 106.473 150.643 106.471C150.643 106.47 150.643 106.469 150.643 106.469C150.643 106.468 150.643 106.468 150.144 106.44ZM134.354 162.62C132.947 162.781 131.538 162.28 130.108 161.238C128.674 160.193 127.257 158.63 125.859 156.744C123.057 152.966 120.415 148.016 117.895 143.622C116.641 141.435 115.417 139.386 114.226 137.714C113.044 136.053 111.859 134.711 110.67 133.99C110.068 133.625 109.44 133.404 108.795 133.401C108.143 133.399 107.519 133.621 106.933 134.064C105.789 134.928 104.767 136.65 103.817 139.325L104.76 139.659C105.697 137.02 106.639 135.539 107.536 134.862C107.97 134.534 108.385 134.4 108.792 134.401C109.206 134.403 109.656 134.544 110.151 134.845C111.157 135.454 112.244 136.653 113.412 138.294C114.572 139.923 115.775 141.935 117.028 144.12C119.522 148.468 122.208 153.5 125.055 157.339C126.481 159.261 127.968 160.915 129.519 162.046C131.073 163.179 132.729 163.812 134.468 163.614L134.354 162.62Z" fill="#1B191A"/>
<path d="M152.889 93.3268C152.806 93.5903 152.953 93.8709 153.216 93.9537C153.479 94.0364 153.76 93.89 153.843 93.6265L152.889 93.3268ZM153.366 93.4767C153.843 93.6265 153.843 93.6257 153.843 93.6249C153.843 93.6246 153.844 93.6237 153.844 93.6231C153.844 93.6219 153.845 93.6207 153.845 93.6193C153.846 93.6167 153.847 93.6137 153.848 93.6105C153.849 93.604 153.852 93.5964 153.854 93.5877C153.858 93.5703 153.863 93.5485 153.868 93.5224C153.878 93.4703 153.889 93.401 153.894 93.3159C153.906 93.1452 153.898 92.9127 153.837 92.6282C153.714 92.0559 153.379 91.2987 152.583 90.4218C151.002 88.6811 147.579 86.4396 140.23 84.1669L139.935 85.1222C147.222 87.3757 150.441 89.5503 151.842 91.0941C152.538 91.8594 152.779 92.4616 152.86 92.8381C152.9 93.028 152.902 93.1673 152.896 93.2497C152.894 93.2912 152.889 93.3189 152.887 93.332C152.885 93.3385 152.885 93.3415 152.885 93.3407C152.885 93.3402 152.885 93.3389 152.886 93.3366C152.886 93.3355 152.887 93.3341 152.887 93.3324C152.887 93.3316 152.888 93.3308 152.888 93.3298C152.888 93.3294 152.888 93.3286 152.888 93.3284C152.889 93.3276 152.889 93.3268 153.366 93.4767Z" fill="#1B191A"/>
<path d="M89.7626 80.822C95.6683 80.822 100.456 76.0345 100.456 70.1288C100.456 64.2231 95.6683 59.4355 89.7626 59.4355C83.8569 59.4355 79.0693 64.2231 79.0693 70.1288C79.0693 76.0345 83.8569 80.822 89.7626 80.822Z" fill="#C63539"/>
<path d="M142.897 159.139C143.7 159.139 144.35 158.488 144.35 157.686C144.35 156.883 143.7 156.232 142.897 156.232C142.095 156.232 141.444 156.883 141.444 157.686C141.444 158.488 142.095 159.139 142.897 159.139Z" fill="#1D765A"/>
<path d="M184.34 70.6992C186.5 70.6992 188.252 68.9477 188.252 66.7871C188.252 64.6265 186.5 62.875 184.34 62.875C182.179 62.875 180.428 64.6265 180.428 66.7871C180.428 68.9477 182.179 70.6992 184.34 70.6992Z" fill="#D5C1AC"/>
<path d="M186.022 150.654C187.306 150.654 188.347 149.613 188.347 148.329C188.347 147.045 187.306 146.004 186.022 146.004C184.738 146.004 183.697 147.045 183.697 148.329C183.697 149.613 184.738 150.654 186.022 150.654Z" fill="#C63539"/>
</svg>
