<svg width="280" height="280" viewBox="0 0 280 280" fill="none" xmlns="http://www.w3.org/2000/svg">
<path d="M156.446 87.4727L197.688 107.776L188.169 177.571L145.024 164.883L156.446 87.4727Z" fill="#D4C1AC"/>
<path d="M223.066 86.8397L197.688 107.776L188.169 177.57L216.088 167.419L223.066 86.8397Z" fill="#D4C1AC"/>
<path d="M116.613 42.8948H116.496L132.339 81.9901L150.24 46.1272C152.233 43.3386 153.456 40.0743 153.787 36.6627C154.117 33.2512 153.544 29.8127 152.123 26.6932C150.703 23.5738 148.486 20.8834 145.696 18.8927C142.906 16.902 139.641 15.6813 136.229 15.3533C132.817 15.0254 129.379 15.6018 126.261 17.0245C123.143 18.4472 120.454 20.6661 118.466 23.4579C116.477 26.2497 115.259 29.516 114.934 32.928C114.609 36.3401 115.188 39.7777 116.613 42.8948ZM122.67 36.7302C122.549 34.4984 123.092 32.2808 124.232 30.3579C125.371 28.435 127.055 26.8932 129.071 25.9275C131.086 24.9617 133.343 24.6154 135.556 24.9323C137.768 25.2492 139.837 26.215 141.501 27.7078C143.164 29.2005 144.348 31.153 144.901 33.3184C145.455 35.4838 145.354 37.7648 144.612 39.8729C143.869 41.981 142.518 43.8216 140.73 45.1618C138.941 46.502 136.795 47.2817 134.563 47.4023C131.571 47.564 128.638 46.5308 126.407 44.5299C124.177 42.5291 122.833 39.7244 122.67 36.7325V36.7302Z" fill="#1D765A"/>
<path d="M156.344 103.885L149.593 59.1316C149.593 59.1316 111.705 47.8383 113.55 84.6809L106.6 91.9144L118.381 94.1576L114.272 142.706" stroke="#1B191A" stroke-miterlimit="10" stroke-linecap="round" stroke-linejoin="round"/>
<path d="M93.3169 211.408C93.3169 211.408 94.6975 237.679 96.5188 236.458C98.34 235.237 99.6456 224.103 99.6456 224.103C99.6456 224.103 95.9633 243.582 100.515 238.87C105.067 234.159 103.548 222.294 103.548 222.294C103.548 222.294 102.465 243.085 106.996 238.113C111.527 233.141 109.865 221.236 109.865 221.236C109.865 221.236 109.671 244.725 114.603 237.82C119.534 230.915 115.325 217.287 115.325 217.287C115.325 217.287 120.355 241.767 122.699 236.688C125.043 231.609 125.169 211.427 125.169 211.427C125.169 211.427 255.912 194.813 209.74 174.842C163.568 154.871 141 190.633 120.861 176.34C120.861 176.34 96.636 162.703 144.875 155.643C193.114 148.582 176.221 202.871 203.709 160.059" stroke="#1B191A" stroke-miterlimit="10" stroke-linecap="round" stroke-linejoin="round"/>
<path d="M123.427 248.338C123.427 248.338 127.831 260.721 139 258.885C150.169 257.05 184.708 253.829 185.826 253.705C186.944 253.581 189.107 249.052 180.453 249.704C171.8 250.356 168.841 250.989 168.841 250.989C168.841 250.989 167.824 248.645 183.25 247.555C198.676 246.465 181.316 243.786 171.202 244.904C161.088 246.022 169.669 244.768 169.669 244.768C169.669 244.768 180.941 243.83 184.178 242.243C187.415 240.656 182.277 238.776 175.876 239.177C172.098 239.402 168.355 240.022 164.707 241.027C164.707 241.027 176.525 238.186 181.977 236.05C187.429 233.915 171.762 236.261 165.361 236.662C158.959 237.063 169.28 234.391 175.24 233.425C181.201 232.459 186.517 229.115 178.288 230.024C170.058 230.934 152.396 232.57 138.515 227.057C124.634 221.544 96.3398 222.837 117.33 176.077C138.32 129.317 153.226 78.9476 106.353 111.105C59.4808 143.262 65.1626 184.3 84.6504 192.563" stroke="#1B191A" stroke-miterlimit="10" stroke-linecap="round" stroke-linejoin="round"/>
<path d="M165.081 100.875C164.635 101.019 164.205 101.21 163.799 101.445" stroke="#1B191A" stroke-miterlimit="10" stroke-linecap="round" stroke-linejoin="round"/>
<path d="M161.648 103.255C159.583 105.833 158.617 110.964 166.083 120.6C178.783 136.975 172.768 112.244 181.122 121.936C189.476 131.629 159.735 161.371 180.121 157.361C196.555 154.126 201.686 140.25 204.995 138.496" stroke="#1B191A" stroke-miterlimit="10" stroke-linecap="round" stroke-linejoin="round" stroke-dasharray="12.06 12.06"/>
<path d="M206.324 138.546C206.687 138.844 206.982 139.218 207.189 139.64" stroke="#1B191A" stroke-miterlimit="10" stroke-linecap="round" stroke-linejoin="round"/>
<path d="M214.378 136.241L208.356 146.433" stroke="#1B191A" stroke-miterlimit="10" stroke-linecap="round" stroke-linejoin="round"/>
<path d="M210.671 137.631L214.841 145.971" stroke="#1B191A" stroke-miterlimit="10" stroke-linecap="round" stroke-linejoin="round"/>
<path d="M224.157 102.237L204.716 106.126C202.649 106.539 201.481 108.365 202.168 110.111C202.775 111.667 204.648 112.628 206.507 112.338L226.124 109.29C228.074 108.988 229.337 107.415 228.986 105.73L228.812 104.895C228.428 103.044 226.271 101.813 224.157 102.237Z" stroke="#1B191A" stroke-miterlimit="10" stroke-linecap="round" stroke-linejoin="round"/>
<path d="M226.662 109.323L207.207 113.214C205.14 113.629 203.975 115.453 204.659 117.199C205.269 118.755 207.139 119.716 209 119.428L228.615 116.381C230.567 116.076 231.831 114.506 231.479 112.82L231.306 111.986C230.921 110.13 228.772 108.899 226.662 109.323Z" stroke="#1B191A" stroke-miterlimit="10" stroke-linecap="round" stroke-linejoin="round"/>
<path d="M229.475 116.559L210.045 120.492C207.98 120.909 206.82 122.738 207.509 124.477C208.123 126.033 209.999 126.99 211.857 126.694L231.46 123.598C233.41 123.291 234.669 121.723 234.313 120.03L234.137 119.196C233.745 117.358 231.584 116.132 229.475 116.559Z" stroke="#1B191A" stroke-miterlimit="10" stroke-linecap="round" stroke-linejoin="round"/>
<path d="M230.972 123.607L212.039 128.872C210.026 129.432 209.046 131.338 209.899 133.042C210.654 134.554 212.609 135.386 214.428 134.962L233.613 130.508C235.521 130.067 236.623 128.398 236.11 126.746L235.856 125.926C235.291 124.111 233.03 123.035 230.972 123.607Z" stroke="#1B191A" stroke-miterlimit="10" stroke-linecap="round" stroke-linejoin="round"/>
<path d="M144.478 169.845L164.064 166.774C166.148 166.446 167.388 164.664 166.778 162.895C166.234 161.313 164.404 160.277 162.533 160.488L142.809 162.717C140.844 162.937 139.527 164.454 139.797 166.153L139.937 166.994C140.244 168.858 142.347 170.173 144.478 169.845Z" stroke="#1B191A" stroke-miterlimit="10" stroke-linecap="round" stroke-linejoin="round"/>
<path d="M142.279 162.672L161.865 159.602C163.949 159.276 165.189 157.492 164.58 155.722C164.038 154.131 162.203 153.092 160.328 153.296L140.603 155.525C138.639 155.76 137.322 157.265 137.591 158.964L137.732 159.805C138.06 161.676 140.151 162.996 142.279 162.672Z" stroke="#1B191A" stroke-miterlimit="10" stroke-linecap="round" stroke-linejoin="round"/>
<path d="M139.764 155.31L159.338 152.197C161.422 151.866 162.657 150.087 162.041 148.311C161.5 146.733 159.66 145.697 157.791 145.913L138.074 148.186C136.112 148.421 134.792 149.93 135.076 151.63L135.217 152.471C135.528 154.335 137.636 155.64 139.764 155.31Z" stroke="#1B191A" stroke-miterlimit="10" stroke-linecap="round" stroke-linejoin="round"/>
<path d="M138.564 148.205L157.7 143.752C159.735 143.283 160.794 141.408 160.014 139.675C159.322 138.133 157.405 137.224 155.56 137.566L136.206 141.201C134.279 141.562 133.11 143.175 133.553 144.856L133.773 145.688C134.27 147.521 136.483 148.693 138.564 148.205Z" stroke="#1B191A" stroke-miterlimit="10" stroke-linecap="round" stroke-linejoin="round"/>
<path d="M90.5568 137.418C91.3594 137.418 92.01 136.767 92.01 135.965C92.01 135.162 91.3594 134.512 90.5568 134.512C89.7542 134.512 89.1035 135.162 89.1035 135.965C89.1035 136.767 89.7542 137.418 90.5568 137.418Z" fill="#987A0F"/>
<path d="M100.082 89.247C102.242 89.247 103.994 87.4955 103.994 85.3349C103.994 83.1743 102.242 81.4228 100.082 81.4228C97.9209 81.4228 96.1694 83.1743 96.1694 85.3349C96.1694 87.4955 97.9209 89.247 100.082 89.247Z" fill="#D4C1AC"/>
<path d="M120.955 130.269C122.239 130.269 123.28 129.228 123.28 127.944C123.28 126.66 122.239 125.619 120.955 125.619C119.67 125.619 118.629 126.66 118.629 127.944C118.629 129.228 119.67 130.269 120.955 130.269Z" fill="#1D765A"/>
</svg>
