<svg width="128" height="14" viewBox="0 0 128 14" fill="none" xmlns="http://www.w3.org/2000/svg">
<path d="M12.0209 10.4143C12.0209 12.0611 10.6528 13.4408 8.94839 13.4186C8.00645 13.4186 7.04203 12.9735 6.45901 12.1279L5.83099 11.2377C5.53948 12.5285 4.41807 13.4186 2.98281 13.4186C1.32318 13.4186 0 12.0835 0 10.4366V2.98187C0 1.3351 1.30078 -6.96182e-05 2.98281 -6.96182e-05C4.44057 -6.96182e-05 5.58432 0.956833 5.85344 2.26976L6.57109 1.29062C7.15421 0.4895 8.09615 0.0221672 9.03807 0.0221672C10.6528 0.0221672 12.0209 1.29062 12.0209 2.93735C12.0209 3.56039 11.8415 4.1835 11.4602 4.69531L10.0248 6.67586L11.4602 8.65643C11.8415 9.19042 12.0209 9.79129 12.0209 10.4143ZM16.1503 -6.96182e-05C17.9497 -6.96182e-05 19.3892 1.4711 19.3667 3.20975V10.209C19.3667 11.9477 17.9497 13.4188 16.1277 13.4188C14.3508 13.4188 12.9114 11.9699 12.9114 10.209V3.20975C12.9114 1.4711 14.3508 -6.96182e-05 16.1503 -6.96182e-05ZM31.8331 9.73085C31.8331 11.8859 30.0404 13.4188 27.1635 13.4188C23.3128 13.4188 20.48 10.5529 20.48 6.70935C20.48 2.86592 23.3128 -6.96182e-05 27.1635 -6.96182e-05C30.0404 -6.96182e-05 31.8331 1.5329 31.8331 3.68792C31.8331 5.13198 31.1249 6.10948 29.7085 6.70935C31.1249 7.30929 31.8331 8.30899 31.8331 9.73085ZM44.9669 10.4143C44.9669 12.0611 43.5964 13.4408 41.9112 13.4186C40.9675 13.4186 40.0013 12.9735 39.4171 12.1279L38.788 11.2377C38.4959 12.5285 37.3724 13.4186 35.9344 13.4186C34.2717 13.4186 32.9461 12.0835 32.9461 10.4366V2.98187C32.9461 1.3351 34.2493 -6.96182e-05 35.9344 -6.96182e-05C37.3949 -6.96182e-05 38.5409 0.956833 38.8105 2.26976L39.5071 1.29062C40.0912 0.4895 41.0349 0.0221672 41.9785 0.0221672C43.5964 0.0221672 44.9669 1.29062 44.9669 2.93735C44.9669 3.56039 44.7872 4.1835 44.4052 4.69531L42.9672 6.67586L44.4052 8.65643C44.7872 9.19042 44.9669 9.79129 44.9669 10.4143ZM56.32 9.28948C56.32 11.9595 54.2677 13.6426 50.8101 13.6426C47.2856 13.6426 45.6348 12.4307 45.6348 10.4562C45.6348 9.0875 46.6832 8.21244 48.1777 8.21244H48.2001L47.3971 7.47191C46.3932 6.55191 45.7017 5.63195 45.7017 4.28564C45.7017 1.66036 47.6201 -6.96182e-05 50.8993 -6.96182e-05C54.2455 -6.96182e-05 55.8292 1.18917 55.8292 3.18621C55.8292 4.37538 55.0261 5.1832 53.8216 5.36273L54.6469 6.10316C55.6508 7.0007 56.32 7.94311 56.32 9.28948ZM65.3972 10.6233C65.3972 12.2782 63.9921 13.6426 62.1857 13.6426C60.446 13.6426 59.0409 12.2782 59.0409 10.6233V5.99374C57.5467 5.90426 56.32 4.67417 56.32 3.10866C56.32 1.47597 57.6136 0.223638 59.1971 0.223638H65.2412C66.8248 0.223638 68.1183 1.49836 68.1183 3.10866C68.1183 4.67417 66.8916 5.9266 65.3972 5.99374V10.6233ZM73.2203 11.0861C72.4609 12.6635 71.3888 13.4188 70.0932 13.4188C67.7477 13.4188 66.0501 11.2639 67.1 8.84219L69.8475 2.44375C70.54 0.866359 71.5451 -6.96182e-05 73.2427 -6.96182e-05C74.9627 -6.96182e-05 75.9679 0.866359 76.638 2.44375L79.3855 8.84219C80.4129 11.2639 78.7376 13.4188 76.3699 13.4188C75.0521 13.4188 73.9799 12.6635 73.2203 11.0861ZM80.5844 3.55594C80.5844 1.36419 81.7509 0.223638 83.8372 0.223638H87.7183C90.0737 0.223638 91.9133 2.01278 91.9133 4.3163C91.9133 5.56874 91.3972 6.59759 90.5448 7.24612L91.7113 9.10241C92.0253 9.59439 92.16 10.1313 92.16 10.6904C92.16 12.3453 90.8588 13.6426 89.2212 13.6426C88.2117 13.6426 87.2247 13.1282 86.6639 12.1887L86.3497 11.6296C85.9684 12.815 84.914 13.6426 83.568 13.6426C81.9304 13.6426 80.5844 12.2559 80.5844 10.5785V3.55594ZM101.465 10.6233C101.465 12.2782 100.085 13.6426 98.2372 13.6426C96.5009 13.6426 95.0984 12.2782 95.0984 10.6233V5.99374C93.6069 5.90426 92.3825 4.67417 92.3825 3.10866C92.3825 1.47597 93.6737 0.223638 95.2543 0.223638H101.309C102.89 0.223638 104.181 1.49836 104.181 3.10866C104.181 4.67417 102.957 5.9266 101.465 5.99374V10.6233ZM115.534 11.0712C115.534 12.5146 114.384 13.6648 112.99 13.6422H108.345C106.221 13.6422 105.071 12.5146 105.071 10.3044V3.56134C105.071 1.37372 106.221 0.223638 108.345 0.223638H112.99C114.384 0.223638 115.534 1.37372 115.534 2.81709C115.534 4.12515 114.738 5.07231 113.587 5.29784C114.118 5.63613 114.406 6.1999 114.406 6.94409C114.406 7.68838 114.096 8.2522 113.587 8.59049C114.715 8.81602 115.534 9.7858 115.534 11.0712ZM116.424 3.55594C116.424 1.36419 117.569 0.223638 119.677 0.223638H123.558C125.914 0.223638 127.753 2.01278 127.753 4.3163C127.753 5.56874 127.237 6.59759 126.385 7.24612L127.551 9.10241C127.865 9.59439 128 10.1313 128 10.6904C128 12.3453 126.699 13.6426 125.061 13.6426C124.052 13.6426 123.065 13.1282 122.504 12.1887L122.19 11.6296C121.808 12.815 120.754 13.6426 119.408 13.6426C117.77 13.6426 116.424 12.2559 116.424 10.5785V3.55594Z" fill="#05CE78"/>
</svg>
