<svg width="16" height="16" viewBox="0 0 16 16" fill="none" xmlns="http://www.w3.org/2000/svg">
<circle cx="8" cy="8" r="8" fill="#E6EAED"/>
<path fill-rule="evenodd" clip-rule="evenodd" d="M8 14C11.3137 14 14 11.3137 14 8C14 4.68629 11.3137 2 8 2C4.68629 2 2 4.68629 2 8C2 11.3137 4.68629 14 8 14ZM11.4349 6.64018C11.7885 6.21591 11.7311 5.58534 11.3069 5.23178C10.8826 4.87821 10.252 4.93554 9.89845 5.35982L7.96716 7.67736C7.62044 8.09342 7.42553 8.32376 7.26991 8.46531L7.26396 8.47069L7.25755 8.46587C7.08976 8.339 6.87479 8.12724 6.49183 7.74428L6.04044 7.29289C5.64992 6.90237 5.01675 6.90237 4.62623 7.29289C4.2357 7.68342 4.2357 8.31658 4.62623 8.70711L5.07762 9.1585L5.11844 9.19933L5.11845 9.19934C5.44494 9.52596 5.75903 9.84016 6.05127 10.0611C6.37864 10.3087 6.80735 10.5415 7.35676 10.5165C7.90617 10.4916 8.31206 10.221 8.61567 9.94482C8.8867 9.69829 9.17105 9.35693 9.46664 9.00209L9.5036 8.95773L11.4349 6.64018Z" fill="#24674A"/>
</svg>
