<svg width="132" height="28" viewBox="0 0 132 28" fill="none" xmlns="http://www.w3.org/2000/svg">
<g clip-path="url(#clip0_170_10332)">
<path fill-rule="evenodd" clip-rule="evenodd" d="M14.6011 0.576746C22.9226 0.576746 29.2023 6.57825 29.2023 14.2508C29.2023 17.7835 27.8282 20.8984 25.5907 23.253L29.476 27.4689H22.9215L21.5744 25.9648C19.6269 27.2761 17.1914 27.8868 14.6011 27.8868C6.31869 27.8868 0 21.9233 0 14.2513C0 6.3495 6.55456 0.576746 14.6011 0.576746ZM14.6011 22.6069C15.6993 22.6069 16.6807 22.3798 17.6231 21.9994L12.0098 15.8463H18.5649L21.5874 19.2274C22.6856 17.8971 23.1963 16.3022 23.1963 14.2508C23.1963 9.65561 19.6258 5.89463 14.6001 5.89463C9.57595 5.89463 6.04495 9.61705 6.04495 14.2508C6.04495 18.9606 9.57595 22.6075 14.6006 22.6075L14.6011 22.6069ZM33.0189 8.32693H38.9454V19.266C38.9454 21.8493 40.5943 22.7982 42.557 22.7982C44.5192 22.7982 46.1681 21.8488 46.1681 19.266V8.32588H52.0951V19.7583C52.0946 25.3805 47.6206 28.0009 42.557 28.0009C37.4934 28.0009 33.0195 25.3805 33.0195 19.7594V8.32535L33.0189 8.32693ZM56.146 27.47H61.994V8.32588H56.146V27.4689V27.47ZM55.6093 3.33184C55.6093 1.45109 57.189 0.00195312 59.05 0.00195312C60.9532 0.00195312 62.4906 1.45109 62.4906 3.33184C62.4906 5.17297 60.9532 6.62316 59.05 6.62316C57.189 6.62316 55.6093 5.17297 55.6093 3.33184ZM74.943 13.3025H65.8869V8.32693H85.001L74.1002 22.4944H84.4508V27.47H63.9259L74.943 13.3025V13.3025ZM87.7481 27.47H93.5961V0.995689H87.7475V27.4689L87.7481 27.47ZM96.9789 17.8601C96.9789 11.7831 101.454 7.87101 107.459 7.87101C113.503 7.87101 117.467 12.201 117.467 17.5569C117.467 17.5569 117.467 18.6294 117.35 19.5032H102.828C102.946 21.7823 104.711 23.1395 108.047 23.1395C111.816 23.1395 113.935 22.038 115.073 21.2783V26.2163C113.228 27.3558 111.188 27.9639 107.734 27.9639C101.1 27.9639 96.9789 24.0518 96.9789 18.0503V17.8601ZM111.58 15.7332C111.58 14.0241 109.775 12.5808 107.459 12.5808C105.025 12.5808 102.985 13.9861 102.867 15.7332H111.579H111.58ZM121.952 13.4546H119.323V8.32693H121.952V0.995161H127.643V8.32588H132V13.4536H127.643V27.4694H121.952V13.4536V13.4546Z" fill="#4257B2"/>
</g>
<defs>
<clipPath id="clip0_170_10332">
<rect width="132" height="28" fill="white"/>
</clipPath>
</defs>
</svg>
