<svg width="24" height="24" viewBox="0 0 24 24" fill="none" xmlns="http://www.w3.org/2000/svg">
<path fill-rule="evenodd" clip-rule="evenodd" d="M12.0009 1.48459C11.3435 1.48459 10.7716 1.90617 9.62764 2.74933L7.90673 4.01778C7.72653 4.15061 7.63643 4.21702 7.53969 4.27288C7.44295 4.32873 7.34039 4.37355 7.13525 4.4632L5.17628 5.31932C3.87413 5.8884 3.22305 6.17294 2.89433 6.74229C2.56561 7.31165 2.64473 8.01777 2.80298 9.43L3.04104 11.5546C3.06597 11.7771 3.07843 11.8883 3.07843 12C3.07843 12.1117 3.06597 12.2229 3.04104 12.4454L2.80298 14.57C2.64473 15.9822 2.56561 16.6883 2.89433 17.2577C3.22305 17.8271 3.87413 18.1116 5.17628 18.6807L7.13525 19.5368C7.34039 19.6264 7.44295 19.6713 7.53969 19.7271C7.63643 19.783 7.72653 19.8494 7.90673 19.9822L9.62764 21.2507C10.7716 22.0938 11.3435 22.5154 12.0009 22.5154C12.6584 22.5154 13.2303 22.0938 14.3742 21.2507L14.3743 21.2507L16.0952 19.9822C16.2754 19.8494 16.3655 19.783 16.4622 19.7271C16.5589 19.6713 16.6615 19.6264 16.8666 19.5368L18.8256 18.6807C20.1278 18.1116 20.7788 17.8271 21.1076 17.2577C21.4363 16.6883 21.3572 15.9822 21.1989 14.57L20.9609 12.4454L20.9608 12.4454C20.9359 12.2229 20.9235 12.1117 20.9235 12C20.9235 11.8883 20.9359 11.7771 20.9608 11.5546L20.9609 11.5546L21.1989 9.43001C21.3572 8.01777 21.4363 7.31165 21.1076 6.74229C20.7788 6.17294 20.1278 5.8884 18.8256 5.31932L16.8666 4.4632L16.8666 4.4632C16.6615 4.37355 16.5589 4.32872 16.4622 4.27288C16.3655 4.21702 16.2754 4.15061 16.0952 4.01778L14.3743 2.74933C13.2303 1.90617 12.6584 1.48459 12.0009 1.48459ZM12.0009 16C14.2101 16 16.0009 14.2091 16.0009 12C16.0009 9.79086 14.2101 8 12.0009 8C9.79181 8 8.00095 9.79086 8.00095 12C8.00095 14.2091 9.79181 16 12.0009 16Z" fill="#B6C1C7"/>
</svg>
