<svg width="24" height="24" viewBox="0 0 24 24" fill="none" xmlns="http://www.w3.org/2000/svg">
<path d="M18.5053 6.24398L12.5909 3.70925C12.2136 3.54754 11.7864 3.54754 11.4091 3.70925L5.49474 6.24398C4.88031 6.50731 4.51429 7.14544 4.5972 7.80875L5.21019 12.7126C5.41462 14.348 6.23266 15.8447 7.4988 16.8999L11.0397 19.8506C11.596 20.3142 12.404 20.3142 12.9603 19.8506L16.5012 16.8998C17.7673 15.8447 18.5854 14.348 18.7898 12.7126L19.4028 7.80875C19.4857 7.14544 19.1197 6.50731 18.5053 6.24398Z" stroke="#24674A" stroke-linecap="round"/>
<path d="M9 12L11.5687 14.5687C11.7918 14.7918 12.1633 14.7551 12.3383 14.4925L16 9" stroke="#24674A" stroke-linecap="round"/>
</svg>
