<svg width="280" height="280" viewBox="0 0 280 280" fill="none" xmlns="http://www.w3.org/2000/svg">
<path d="M170.911 119.794L190.566 99.0173C190.917 98.6553 191.336 98.366 191.8 98.1661C192.263 97.9661 192.761 97.8594 193.266 97.852C193.77 97.8446 194.271 97.9367 194.74 98.1229C195.209 98.3092 195.637 98.5861 195.999 98.9377V98.9377C196.361 99.289 196.651 99.7082 196.851 100.171C197.051 100.635 197.158 101.133 197.165 101.637C197.173 102.142 197.081 102.643 196.895 103.112C196.709 103.581 196.432 104.009 196.081 104.371L177.863 123.144C177.863 123.144 162.239 139.467 163.652 140.937" stroke="#1B191A" stroke-miterlimit="10" stroke-linecap="round" stroke-linejoin="round"/>
<path d="M157.312 121.962L171.889 107.261C172.24 106.899 172.659 106.609 173.123 106.409C173.586 106.209 174.084 106.102 174.588 106.094C175.093 106.087 175.594 106.178 176.063 106.365C176.532 106.551 176.96 106.827 177.322 107.179V107.179C177.684 107.53 177.974 107.949 178.174 108.412C178.374 108.876 178.481 109.374 178.489 109.878C178.496 110.383 178.404 110.884 178.218 111.353C178.032 111.822 177.756 112.25 177.404 112.612L167.698 123.045" stroke="#1B191A" stroke-miterlimit="10" stroke-linecap="round" stroke-linejoin="round"/>
<path d="M148.557 120.148L162.555 106.03C162.906 105.668 163.325 105.379 163.789 105.178C164.252 104.978 164.75 104.871 165.255 104.864C165.759 104.856 166.26 104.948 166.729 105.134C167.198 105.32 167.626 105.597 167.988 105.948V105.948C168.35 106.3 168.64 106.719 168.84 107.182C169.04 107.645 169.147 108.143 169.155 108.648C169.162 109.152 169.071 109.654 168.884 110.123C168.698 110.592 168.422 111.019 168.07 111.382L157.281 122.122" stroke="#1B191A" stroke-miterlimit="10" stroke-linecap="round" stroke-linejoin="round"/>
<path d="M148.105 120.683L157.366 111.169C158.075 110.437 158.465 109.454 158.449 108.435C158.434 107.416 158.015 106.445 157.284 105.735V105.735C156.921 105.384 156.494 105.107 156.025 104.921C155.556 104.735 155.054 104.643 154.55 104.651C154.045 104.658 153.547 104.765 153.084 104.966C152.621 105.166 152.202 105.455 151.85 105.817L132.904 125.331C132.904 125.331 104.964 151.302 101.82 160.216" stroke="#1B191A" stroke-miterlimit="10" stroke-linecap="round" stroke-linejoin="round"/>
<path d="M163.734 141.021L178.311 126.319C178.662 125.957 179.081 125.668 179.545 125.468C180.008 125.267 180.506 125.16 181.01 125.153C181.515 125.145 182.016 125.237 182.485 125.423C182.954 125.609 183.382 125.886 183.744 126.237V126.237C184.106 126.589 184.396 127.008 184.596 127.471C184.796 127.934 184.903 128.432 184.911 128.937C184.918 129.442 184.826 129.943 184.64 130.412C184.454 130.881 184.178 131.309 183.826 131.671L174.117 142.104C174.117 142.104 159.641 158.029 147.305 147.757C147.305 147.757 128.949 143.63 145.139 168.909C161.329 194.189 119.121 226.199 85.4658 194.928" stroke="#1B191A" stroke-miterlimit="10" stroke-linecap="round" stroke-linejoin="round"/>
<path d="M109.996 125.31C111.939 125.31 113.514 123.735 113.514 121.792C113.514 119.849 111.939 118.273 109.996 118.273C108.053 118.273 106.478 119.849 106.478 121.792C106.478 123.735 108.053 125.31 109.996 125.31Z" fill="#987A0F"/>
<path d="M124.887 99.0011C132.639 99.0011 138.923 92.7171 138.923 84.9654C138.923 77.2137 132.639 70.9297 124.887 70.9297C117.136 70.9297 110.852 77.2137 110.852 84.9654C110.852 92.7171 117.136 99.0011 124.887 99.0011Z" fill="#D5C1AC"/>
<path d="M120.903 98.2981C128.655 98.2981 134.939 92.0141 134.939 84.2623C134.939 76.5106 128.655 70.2266 120.903 70.2266C113.151 70.2266 106.867 76.5106 106.867 84.2623C106.867 92.0141 113.151 98.2981 120.903 98.2981Z" stroke="#1B191A" stroke-miterlimit="10" stroke-linecap="round" stroke-linejoin="round"/>
<path d="M156.637 91.3113C156.637 91.3113 177.775 57.0587 158.725 58.73C139.676 60.4012 137.421 40.9345 124.888 70.9187" stroke="#1B191A" stroke-miterlimit="10" stroke-linecap="round" stroke-linejoin="round"/>
<path d="M188.227 164.828H117.525V164.795C117.526 162.843 118.301 160.971 119.681 159.59C121.061 158.209 122.933 157.432 124.885 157.431H188.227V164.828Z" fill="#1D765A"/>
<path d="M187.746 162.842L182.5 160.695L200.08 117.727L208.216 97.834L213.462 99.9811L187.746 162.842Z" fill="#1D765A"/>
<path d="M159.756 165.134C173.605 151.714 183.004 163.423 183.004 163.423L189.007 160.586L195.699 143.424C195.953 142.763 196.448 142.222 197.083 141.909C197.719 141.597 198.449 141.536 199.128 141.738V141.738C199.493 141.846 199.832 142.027 200.125 142.269C200.418 142.511 200.659 142.81 200.834 143.147C201.009 143.484 201.115 143.854 201.144 144.233C201.173 144.612 201.125 144.993 201.003 145.353L195.425 161.862L194.698 164.325L165.15 180.018C165.15 180.018 167.135 167.016 153.627 167.761C140.639 168.472 129.756 190.477 122.049 174.603" stroke="#1B191A" stroke-miterlimit="10" stroke-linecap="round" stroke-linejoin="round"/>
<path d="M110.554 203.879C110.554 203.879 87.7891 263.501 90.3182 262.057C92.8474 260.613 96.8228 255.191 96.8228 255.191C96.8228 255.191 88.8743 271.451 95.3765 265.669C101.879 259.886 104.41 254.467 104.41 254.467C104.41 254.467 97.5447 271.451 104.049 265.308C110.554 259.164 112.361 252.299 112.361 252.299C112.361 252.299 106.939 274.332 114.168 265.659C121.397 256.987 121.395 253.002 121.395 253.002C121.395 253.002 121.395 271.43 125.007 264.926C128.619 258.421 130.794 231.705 130.794 231.705C130.794 231.705 257.624 222.308 198.364 191.233C139.103 160.159 153.856 205.696 128.563 184.738" stroke="#1B191A" stroke-miterlimit="10" stroke-linecap="round" stroke-linejoin="round"/>
<path d="M109.302 216.52L85.211 217.484L78.4674 227.835C76.0052 233.588 73.1058 239.145 69.7947 244.456C64.2535 253.384 72.1949 229.288 72.1949 229.288C72.1949 229.288 70.0267 234.588 63.2878 243.741C56.5488 252.894 64.4926 229.288 64.4926 229.288C64.4926 229.288 62.5658 233.141 54.6174 241.573C46.669 250.004 59.6757 226.156 59.6757 226.156C59.6757 226.156 53.6517 233.141 47.3886 238.682C41.1255 244.224 70.9995 187.853 70.9995 187.853C70.9995 187.853 69.3141 170.991 78.226 180.385C87.1378 189.78 89.0715 187.131 99.1835 184.237" stroke="#1B191A" stroke-miterlimit="10" stroke-linecap="round" stroke-linejoin="round"/>
<path d="M132.7 151.889L152.091 100.666L156.707 101.407L152.408 74.6174C152.408 74.6174 125.368 55.7859 113.533 98.1393C101.698 140.493 54.064 196.396 76.5334 204.321C99.0027 212.246 119.977 176.646 134.059 203.33" stroke="#1B191A" stroke-miterlimit="10" stroke-linecap="round" stroke-linejoin="round"/>
<path d="M201.468 27.1855H95.0259C81.3684 27.1855 70.2969 38.2571 70.2969 51.9145V51.9169C70.2969 65.5743 81.3684 76.6458 95.0259 76.6458H201.468C215.126 76.6458 226.197 65.5743 226.197 51.9169V51.9145C226.197 38.2571 215.126 27.1855 201.468 27.1855Z" stroke="#1B191A" stroke-miterlimit="10" stroke-linecap="round" stroke-linejoin="round"/>
<path d="M98.6227 50.3664L94.5479 49.1521L95.1685 47.1147L99.2433 48.6259L99.1219 43.9844H101.186L101.051 48.6933L105.059 47.2091L105.679 49.26L101.537 50.4879L104.209 54.1444L102.536 55.4127L100.026 51.5268L97.5972 55.3183L95.9106 54.0904L98.6227 50.3664Z" fill="#1B191A"/>
<path d="M150.021 50.0168L145.946 48.8025L146.567 46.7651L150.642 48.2763L150.52 43.6348H152.585L152.45 48.3437L156.457 46.8595L157.078 48.9104L152.936 50.1383L155.607 53.7948L153.934 55.0631L151.424 51.1772L148.996 54.9687L147.309 53.7408L150.021 50.0168Z" fill="#1B191A"/>
<path d="M196.537 51.4758L192.462 50.2615L193.083 48.2241L197.157 49.7353L197.036 45.0938H199.1L198.965 49.8027L202.973 48.3185L203.593 50.3694L199.451 51.5973L202.123 55.2538L200.45 56.5221L197.94 52.6362L195.511 56.4277L193.825 55.1998L196.537 51.4758Z" fill="#1B191A"/>
<path d="M190.688 66.4512L186.01 90.8473L200.381 68.7928" stroke="#1B191A" stroke-miterlimit="10" stroke-linecap="round" stroke-linejoin="round"/>
<path d="M107.073 183.304C109.234 183.304 110.985 181.552 110.985 179.392C110.985 177.231 109.234 175.479 107.073 175.479C104.913 175.479 103.161 177.231 103.161 179.392C103.161 181.552 104.913 183.304 107.073 183.304Z" fill="#1D765A"/>
<path d="M69.2796 127.678C70.7942 127.678 72.022 126.45 72.022 124.936C72.022 123.421 70.7942 122.193 69.2796 122.193C67.765 122.193 66.5371 123.421 66.5371 124.936C66.5371 126.45 67.765 127.678 69.2796 127.678Z" fill="#987A0F"/>
</svg>
