<svg width="280" height="280" viewBox="0 0 280 280" fill="none" xmlns="http://www.w3.org/2000/svg">
<path d="M154.305 175.231L111.527 141.145L151.966 87.3389L206.437 97.3664L154.305 175.231Z" fill="#D5C1AC"/>
<path d="M158.571 128.987L151.506 125.098L157.722 119.667L219.866 114.011C220.358 113.965 220.854 114.017 221.326 114.163C221.798 114.31 222.236 114.548 222.616 114.864C222.996 115.18 223.309 115.568 223.538 116.006C223.767 116.444 223.908 116.923 223.951 117.415L224.118 119.246C224.208 120.239 223.9 121.227 223.261 121.993C222.623 122.759 221.707 123.24 220.714 123.331L158.571 128.987Z" fill="#1D765A"/>
<path d="M196.681 133.431L189.434 131.198L181.092 121.737C180.349 120.894 179.318 120.357 178.2 120.233C177.083 120.108 175.959 120.405 175.049 121.065V121.065C174.532 121.44 174.101 121.922 173.784 122.476C173.467 123.031 173.271 123.646 173.209 124.282C173.147 124.918 173.22 125.56 173.424 126.165C173.628 126.77 173.958 127.326 174.393 127.794L185.526 138.501L186.073 149.546L199.384 157.392" stroke="#1B191A" stroke-miterlimit="10" stroke-linecap="round" stroke-linejoin="round"/>
<path d="M202.48 123.502L193.406 132.751" stroke="#1B191A" stroke-miterlimit="10" stroke-linecap="round" stroke-linejoin="round"/>
<path d="M215.654 123.924L217.789 127.147L207.258 155.408" stroke="#1B191A" stroke-miterlimit="10" stroke-linecap="round" stroke-linejoin="round"/>
<path d="M182.754 117.604L195.055 111.128L205.809 112.279L208.737 114.977" stroke="#1B191A" stroke-miterlimit="10" stroke-linecap="round" stroke-linejoin="round"/>
<path d="M121.888 129.58C121.888 129.58 126.545 127.47 133.32 124.924C140.094 122.379 138.186 114.977 138.186 114.977L125.275 120.056L111.307 124.078L105.588 140.17" stroke="#1B191A" stroke-miterlimit="10" stroke-linecap="round" stroke-linejoin="round"/>
<path d="M118.075 128.944C118.075 128.944 126.965 137.617 114.477 152.227" stroke="#1B191A" stroke-miterlimit="10" stroke-linecap="round" stroke-linejoin="round"/>
<path d="M77.0566 109.752L102.336 45.7897C102.336 45.7897 140.886 41.9901 132.135 77.199L137.827 85.1287L126.81 87.8992L106.886 157.262" stroke="#1B191A" stroke-miterlimit="10" stroke-linecap="round" stroke-linejoin="round"/>
<path d="M116.314 131.732C116.314 131.732 97.9908 96.2771 76.5012 120.833C55.0116 145.388 74.7924 200.835 92.5082 231.904C110.224 262.974 145.145 160.718 150.015 179.23C154.886 197.743 133.95 235.72 163.948 218.609C193.946 201.498 234.767 180.128 235.336 176.971C235.906 173.814 213.455 184.237 211.662 185.262C209.869 186.286 244.518 166.528 232.071 171.259C219.625 175.989 205.291 183.213 205.291 183.213C205.291 183.213 243.91 162.141 234.167 165.802C224.423 169.463 205.244 178.98 205.244 178.98C205.244 178.98 239.525 162.748 230.599 164.524C221.673 166.301 201.625 176.783 201.625 176.783C201.625 176.783 234.675 158.409 226.117 159.982C217.559 161.555 197.654 171.467 197.654 171.467C197.654 171.467 169.438 190.868 172.405 181.131C175.373 171.395 182.953 131.58 109.976 147.165C36.9981 162.75 55.771 98.5789 74.0705 103.286" stroke="#1B191A" stroke-miterlimit="10" stroke-linecap="round" stroke-linejoin="round"/>
<path d="M147.871 101.208L187.306 109.564" stroke="#1B191A" stroke-miterlimit="10" stroke-linecap="round" stroke-linejoin="round"/>
<path d="M142.189 109.564L165.25 114.911" stroke="#1B191A" stroke-miterlimit="10" stroke-linecap="round" stroke-linejoin="round"/>
<path d="M137.178 118.922L149.207 123.6" stroke="#1B191A" stroke-miterlimit="10" stroke-linecap="round" stroke-linejoin="round"/>
<path d="M127.82 126.94L167.253 140.643" stroke="#1B191A" stroke-miterlimit="10" stroke-linecap="round" stroke-linejoin="round"/>
<path d="M124.812 136.633L153.885 155.347" stroke="#1B191A" stroke-miterlimit="10" stroke-linecap="round" stroke-linejoin="round"/>
<path d="M68.7691 66.2803C70.5529 66.2803 71.999 64.8342 71.999 63.0503C71.999 61.2664 70.5529 59.8203 68.7691 59.8203C66.9852 59.8203 65.5391 61.2664 65.5391 63.0503C65.5391 64.8342 66.9852 66.2803 68.7691 66.2803Z" fill="#D5C1AC"/>
<path d="M154.473 57.8706C155.936 57.8706 157.122 56.6848 157.122 55.2219C157.122 53.7591 155.936 52.5732 154.473 52.5732C153.01 52.5732 151.824 53.7591 151.824 55.2219C151.824 56.6848 153.01 57.8706 154.473 57.8706Z" fill="#987A0F"/>
<path d="M73.1929 161.903C74.9768 161.903 76.4229 160.457 76.4229 158.673C76.4229 156.889 74.9768 155.443 73.1929 155.443C71.409 155.443 69.9629 156.889 69.9629 158.673C69.9629 160.457 71.409 161.903 73.1929 161.903Z" fill="#987A0F"/>
<path d="M104.8 189.698C106.584 189.698 108.03 188.252 108.03 186.468C108.03 184.684 106.584 183.238 104.8 183.238C103.016 183.238 101.57 184.684 101.57 186.468C101.57 188.252 103.016 189.698 104.8 189.698Z" fill="#D5C1AC"/>
</svg>
