<svg width="280" height="280" viewBox="0 0 280 280" fill="none" xmlns="http://www.w3.org/2000/svg">
<path d="M44.88 189.753C44.88 189.753 31.6272 167.017 33.8164 167.052C36.0057 167.087 43.2064 175.666 43.2064 175.666C43.2064 175.666 29.4426 161.4 35.8276 162.833C42.2126 164.265 47.4561 175.021 47.4561 175.021C47.4561 175.021 35.1595 158.241 41.6617 159.91C48.1639 161.579 53.3207 172.45 53.3207 172.45C53.3207 172.45 40.2718 152.918 48.185 155.986C56.0983 159.054 60.0549 172.778 60.0549 172.778C60.0549 172.778 50.8314 149.545 55.5756 152.512C60.3198 155.48 71.4912 172.281 71.4912 172.281C71.4912 172.281 189.918 114.453 162.269 156.478C134.619 198.503 96.1335 180.97 87.1349 203.967C87.1349 203.967 74.3602 228.659 118.568 208.1C162.775 187.541 118.868 151.42 165.328 172.141" stroke="#1B191A" stroke-miterlimit="10" stroke-linecap="round" stroke-linejoin="round"/>
<path d="M163.495 246.188C163.495 246.188 171.481 260.184 181.931 255.798C192.38 251.413 225.423 240.881 226.494 240.515C227.566 240.15 228.346 234.301 220.025 236.765C211.704 239.229 208.973 240.553 208.973 240.553C208.973 240.553 207.283 237.946 222.144 233.648C237.005 229.349 219.127 229.501 209.503 232.801C199.878 236.102 207.953 232.935 207.953 232.935C207.953 232.935 218.771 229.623 221.49 227.098C224.209 224.574 218.597 223.308 212.416 225.031C208.758 226.035 205.245 227.508 201.965 229.412C201.965 229.412 212.761 223.716 217.498 220.099C222.235 216.483 207.506 222.331 201.325 224.054C195.144 225.776 204.512 220.57 210.096 218.257C215.679 215.943 219.924 210.902 212.081 213.592C204.238 216.283 187.357 221.67 172.069 217.755C156.782 213.841 129.308 220.859 136.185 160.731C143.063 100.603 142.868 37.3182 106.213 84.9502C69.5579 132.582 87.2549 180.699 108.88 186.829" stroke="#1B191A" stroke-miterlimit="10" stroke-linecap="round" stroke-linejoin="round"/>
<path d="M128.478 209.148C130.421 209.148 131.997 207.573 131.997 205.63C131.997 203.687 130.421 202.111 128.478 202.111C126.535 202.111 124.96 203.687 124.96 205.63C124.96 207.573 126.535 209.148 128.478 209.148Z" fill="#D5C1AC"/>
<path d="M156.454 96.7358C158.397 96.7358 159.972 95.1606 159.972 93.2175C159.972 91.2744 158.397 89.6992 156.454 89.6992C154.511 89.6992 152.936 91.2744 152.936 93.2175C152.936 95.1606 154.511 96.7358 156.454 96.7358Z" fill="#D5C1AC"/>
<path d="M195.009 143.521C195.988 143.521 196.781 142.727 196.781 141.749C196.781 140.77 195.988 139.977 195.009 139.977C194.031 139.977 193.237 140.77 193.237 141.749C193.237 142.727 194.031 143.521 195.009 143.521Z" fill="#D5C1AC"/>
<path d="M109.33 123.269C111.273 123.269 112.848 121.694 112.848 119.751C112.848 117.808 111.273 116.232 109.33 116.232C107.387 116.232 105.812 117.808 105.812 119.751C105.812 121.694 107.387 123.269 109.33 123.269Z" fill="#987A0F"/>
<path d="M146.1 240.942C148.043 240.942 149.619 239.367 149.619 237.424C149.619 235.48 148.043 233.905 146.1 233.905C144.157 233.905 142.582 235.48 142.582 237.424C142.582 239.367 144.157 240.942 146.1 240.942Z" fill="#987A0F"/>
<path d="M155.061 67.2419L135.17 26.5879C135.17 26.5879 95.6345 27.202 108.47 61.778L104.017 70.7672L115.926 69.3608L126.596 116.911" stroke="#1B191A" stroke-miterlimit="10" stroke-linecap="round" stroke-linejoin="round"/>
<path d="M75.9025 79.6603V69.7008L64.0397 60.6882C63.6728 60.4097 63.3703 60.0554 63.1528 59.6494C62.9354 59.2434 62.808 58.7953 62.7796 58.3356C62.7511 57.8759 62.8221 57.4155 62.9878 56.9858C63.1535 56.556 63.4099 56.1671 63.7396 55.8455V55.8455C64.2883 55.309 65.0115 54.9876 65.7774 54.9398C66.5433 54.892 67.3009 55.1211 67.9119 55.5853L82.3743 66.5481L84.7182 77.1476C84.7182 77.1476 87.224 90.3489 104.267 92.5194" stroke="#1B191A" stroke-miterlimit="10" stroke-linecap="round" stroke-linejoin="round"/>
<path d="M74.5989 68.8743L63.908 61.7533C63.4798 61.4321 62.9695 61.2387 62.436 61.1955L54.1195 60.5204C53.7087 60.4882 53.2959 60.5459 52.9096 60.6894C52.5234 60.833 52.1731 61.059 51.883 61.3517C51.593 61.6444 51.3703 61.9967 51.2302 62.3843C51.0902 62.7718 51.0364 63.1852 51.0724 63.5957V63.5957C51.1316 64.2632 51.4251 64.8881 51.9008 65.36C52.3766 65.8319 53.0039 66.1203 53.6718 66.1741L61.1726 66.7671C61.6578 66.807 62.1266 66.971 62.8649 67.325L70.3492 74.5561" stroke="#1B191A" stroke-miterlimit="10" stroke-linecap="round" stroke-linejoin="round"/>
<path d="M70.4227 74.8079L62.1766 68.3666C61.7484 68.0454 61.238 67.852 60.7045 67.8088L52.3881 67.1337C51.9773 67.1015 51.5644 67.1591 51.1782 67.3027C50.7919 67.4462 50.4416 67.6722 50.1516 67.9649C49.8616 68.2576 49.6388 68.61 49.4988 68.9976C49.3588 69.3851 49.3049 69.7985 49.3409 70.209C49.4002 70.8764 49.6936 71.5014 50.1694 71.9733C50.6451 72.4452 51.2725 72.7335 51.9404 72.7874L59.4411 73.3804C59.9268 73.4185 60.3947 73.5798 60.8006 73.8492L68.6787 79.5708" stroke="#1B191A" stroke-miterlimit="10" stroke-linecap="round" stroke-linejoin="round"/>
<path d="M68.7513 79.9878L59.8442 74.4912C59.4155 74.1709 58.9054 73.9775 58.3721 73.9333L50.0557 73.263C49.6456 73.2301 49.2332 73.287 48.8473 73.4297C48.4614 73.5725 48.1113 73.7976 47.8212 74.0894C47.5312 74.3812 47.3083 74.7327 47.1679 75.1195C47.0275 75.5063 46.9732 75.919 47.0085 76.3289V76.3289C47.0669 76.9967 47.3601 77.6222 47.836 78.0942C48.3119 78.5663 48.9398 78.8544 49.608 78.9073L57.1087 79.5003C57.5944 79.5382 58.0624 79.6996 58.4682 79.9691L66.1799 84.6711" stroke="#1B191A" stroke-miterlimit="10" stroke-linecap="round" stroke-linejoin="round"/>
<path d="M66.0763 84.5824L57.5067 80.764C57.1623 80.506 56.7519 80.3508 56.323 80.3163L49.6356 79.7772C49.3054 79.75 48.9733 79.7952 48.6624 79.9097C48.3515 80.0242 48.0694 80.2052 47.8357 80.44C47.6019 80.6748 47.4223 80.9578 47.3093 81.2693C47.1963 81.5807 47.1527 81.913 47.1814 82.2431V82.2431C47.2296 82.7791 47.466 83.2808 47.8487 83.6592C48.2314 84.0376 48.7357 84.2683 49.2723 84.3105L55.2986 84.7793C55.6894 84.8095 56.0657 84.9403 56.3909 85.159L63.3549 89.8329L76.0124 96.1897C76.0124 96.1897 109.18 140.47 120.459 134.704C131.738 128.937 114.444 84.8261 132.491 98.372" stroke="#1B191A" stroke-miterlimit="10" stroke-linecap="round" stroke-linejoin="round"/>
<path d="M66.1613 87.1725C66.1613 87.1725 62.6453 84.3316 72.3423 72.4688" stroke="#1B191A" stroke-miterlimit="10" stroke-linecap="round" stroke-linejoin="round"/>
<path d="M184.783 76.1034L176.077 71.2701L173.946 56.5241C173.881 56.0679 173.718 55.6312 173.469 55.2438C173.219 54.8563 172.889 54.5273 172.501 54.2792C172.112 54.031 171.675 53.8696 171.219 53.806C170.762 53.7424 170.298 53.7781 169.856 53.9106C169.122 54.1306 168.492 54.6062 168.078 55.2513C167.665 55.8963 167.497 56.668 167.604 57.4266L170.182 75.3908L178.318 82.5751C178.318 82.5751 188.648 91.1798 182.284 107.14" stroke="#1B191A" stroke-miterlimit="10" stroke-linecap="round" stroke-linejoin="round"/>
<path d="M175.984 69.7364L174.939 56.9335C174.868 56.4023 174.95 55.862 175.173 55.3748L178.612 47.7756C178.782 47.4002 179.033 47.0665 179.346 46.798C179.659 46.5295 180.027 46.3325 180.424 46.2209C180.821 46.1093 181.238 46.0858 181.645 46.1519C182.052 46.218 182.44 46.3721 182.781 46.6036V46.6036C183.335 46.9783 183.739 47.5366 183.921 48.1801C184.103 48.8235 184.051 49.5105 183.775 50.1196L180.658 56.9593C180.456 57.4023 180.372 57.8969 180.325 58.7103L183.018 68.7613" stroke="#1B191A" stroke-miterlimit="10" stroke-linecap="round" stroke-linejoin="round"/>
<path d="M183.198 68.9602L181.557 58.6233C181.486 58.0928 181.567 57.5528 181.792 57.0669L185.23 49.4583C185.402 49.0842 185.652 48.7518 185.965 48.4843C186.278 48.2167 186.645 48.0204 187.041 47.9089C187.437 47.7974 187.852 47.7734 188.259 47.8386C188.665 47.9037 189.052 48.0565 189.393 48.2863V48.2863C189.947 48.6613 190.35 49.2197 190.532 49.863C190.714 50.5063 190.662 51.1931 190.387 51.8023L187.284 58.6538C187.087 59.095 187.007 59.5791 187.049 60.0602L188.221 69.722" stroke="#1B191A" stroke-miterlimit="10" stroke-linecap="round" stroke-linejoin="round"/>
<path d="M188.538 70.0094L188.053 59.5365C187.983 59.006 188.064 58.4665 188.287 57.9801L191.723 50.395C191.894 50.0206 192.145 49.688 192.457 49.4202C192.77 49.1524 193.137 48.9559 193.533 48.8443C193.929 48.7328 194.345 48.7089 194.752 48.7743C195.158 48.8397 195.545 48.9928 195.886 49.223V49.223C196.439 49.5984 196.842 50.1572 197.022 50.8007C197.203 51.4441 197.15 52.1307 196.873 52.739L193.758 59.5811C193.56 60.0259 193.479 60.5142 193.524 60.9992L193.896 70.0235" stroke="#1B191A" stroke-miterlimit="10" stroke-linecap="round" stroke-linejoin="round"/>
<path d="M193.847 69.898L194.66 60.5526C194.604 60.1264 194.667 59.6931 194.843 59.3009L197.613 53.1901C197.749 52.888 197.95 52.6193 198.201 52.4027C198.452 52.1862 198.747 52.027 199.066 51.9364C199.384 51.8457 199.719 51.8258 200.046 51.878C200.374 51.9302 200.686 52.0532 200.96 52.2385C201.406 52.5408 201.73 52.9909 201.875 53.509C202.021 54.0272 201.978 54.5801 201.755 55.07L199.249 60.5713C199.088 60.9288 199.02 61.3218 199.052 61.7128L199.756 70.0668L199.174 84.2244C199.174 84.2244 221.822 134.702 211.311 141.774C200.801 148.846 170.618 112.329 173.707 134.674" stroke="#1B191A" stroke-miterlimit="10" stroke-linecap="round" stroke-linejoin="round"/>
<path d="M196.078 71.2269C196.078 71.2269 195.295 66.7733 180.219 69.5064" stroke="#1B191A" stroke-miterlimit="10" stroke-linecap="round" stroke-linejoin="round"/>
<path d="M139.014 66.4523C146.766 66.4523 153.05 60.1683 153.05 52.4166C153.05 44.6649 146.766 38.3809 139.014 38.3809C131.263 38.3809 124.979 44.6649 124.979 52.4166C124.979 60.1683 131.263 66.4523 139.014 66.4523Z" fill="#1D765A"/>
<path d="M142.999 65.7492C150.75 65.7492 157.034 59.4652 157.034 51.7135C157.034 43.9618 150.75 37.6777 142.999 37.6777C135.247 37.6777 128.963 43.9618 128.963 51.7135C128.963 59.4652 135.247 65.7492 142.999 65.7492Z" stroke="#1B191A" stroke-miterlimit="10" stroke-linecap="round" stroke-linejoin="round"/>
<path d="M107.265 58.7656C107.265 58.7656 86.1295 24.5107 105.177 26.1843C124.224 27.8579 126.481 8.3888 139.014 38.373" stroke="#1B191A" stroke-miterlimit="10" stroke-linecap="round" stroke-linejoin="round"/>
<path d="M51.7903 132.957C55.2972 132.957 58.1401 130.115 58.1401 126.608C58.1401 123.101 55.2972 120.258 51.7903 120.258C48.2834 120.258 45.4404 123.101 45.4404 126.608C45.4404 130.115 48.2834 132.957 51.7903 132.957Z" stroke="#1B191A" stroke-miterlimit="10" stroke-linecap="round" stroke-linejoin="round"/>
<path d="M58.1303 126.607L53.7939 101.543C53.7939 101.543 60.1438 103.214 67.1546 97.8652L74.8429 120.257" stroke="#1B191A" stroke-miterlimit="10" stroke-linecap="round" stroke-linejoin="round"/>
<path d="M70.2024 130.729C73.7093 130.729 76.5522 127.886 76.5522 124.379C76.5522 120.872 73.7093 118.029 70.2024 118.029C66.6955 118.029 63.8525 120.872 63.8525 124.379C63.8525 127.886 66.6955 130.729 70.2024 130.729Z" stroke="#1B191A" stroke-miterlimit="10" stroke-linecap="round" stroke-linejoin="round"/>
<path d="M184.766 186.316C188.273 186.316 191.116 183.473 191.116 179.966C191.116 176.459 188.273 173.616 184.766 173.616C181.259 173.616 178.416 176.459 178.416 179.966C178.416 183.473 181.259 186.316 184.766 186.316Z" stroke="#1B191A" stroke-miterlimit="10" stroke-linecap="round" stroke-linejoin="round"/>
<path d="M191.116 179.966L185.8 149.332C185.8 149.332 199.836 153.343 205.853 148.664" stroke="#1B191A" stroke-miterlimit="10" stroke-linecap="round" stroke-linejoin="round"/>
<path d="M142.999 65.748C142.999 65.748 129.74 86.3376 151.546 107.14C173.352 127.943 48.0308 184.089 66.8295 206.895" stroke="#1B191A" stroke-miterlimit="10" stroke-linecap="round" stroke-linejoin="round"/>
</svg>
