<svg width="280" height="280" viewBox="0 0 280 280" fill="none" xmlns="http://www.w3.org/2000/svg">
<path d="M148.826 54.4062L160.569 106.874L214.098 111.92L167.826 139.3L179.569 191.77L139.229 156.224L92.9593 183.606L114.299 134.256L73.959 98.7098L127.486 103.756L148.826 54.4062Z" fill="#1D765A"/>
<path d="M118.897 255.895C118.897 255.895 144.018 263.729 143.509 261.6C143 259.472 133.013 254.374 133.013 254.374C133.013 254.374 149.995 264.598 147.17 258.696C144.346 252.794 132.668 250.089 132.668 250.089C132.668 250.089 151.788 258.333 148.701 252.356C145.614 246.379 133.873 243.798 133.873 243.798C133.873 243.798 155.829 252.147 151.068 245.122C146.308 238.097 132.047 237.307 132.047 237.307C132.047 237.307 156.748 241.102 152.8 237.141C148.853 233.18 129.986 226.047 129.986 226.047C129.986 226.047 159.858 97.6836 125.088 134.034C90.317 170.384 115.995 203.976 95.5933 217.89C95.5933 217.89 74.3826 235.861 84.5344 188.178C94.6862 140.494 139.716 175.206 109.125 134.559" stroke="#1B191A" stroke-miterlimit="10" stroke-linecap="round" stroke-linejoin="round"/>
<path d="M170.876 240.242C170.876 240.242 182.498 251.402 191.269 244.243C200.04 237.085 228.772 217.623 229.684 216.969C230.596 216.315 229.703 210.485 222.418 215.197C215.133 219.908 212.892 221.959 212.892 221.959C212.892 221.959 210.532 219.938 223.566 211.606C236.601 203.273 219.502 208.483 211.204 214.376C202.907 220.269 209.758 214.941 209.758 214.941C209.758 214.941 219.195 208.701 221.087 205.509C222.978 202.316 217.24 202.696 211.797 206.097C208.574 208.096 205.622 210.503 203.014 213.258C203.014 213.258 211.758 204.738 215.276 199.93C218.794 195.123 206.324 204.899 200.881 208.301C195.439 211.702 202.954 204.056 207.651 200.258C212.348 196.461 214.997 190.414 208.235 195.221C201.472 200.029 186.815 209.969 171.04 210.539C155.265 211.109 130.911 225.627 120.481 166.015C110.05 106.403 91.9474 45.769 70.2797 101.823C48.6119 157.877 79.2055 199.021 101.689 198.777" stroke="#1B191A" stroke-miterlimit="10" stroke-linecap="round" stroke-linejoin="round"/>
<path d="M125.802 214.775C127.745 214.775 129.32 213.2 129.32 211.257C129.32 209.313 127.745 207.738 125.802 207.738C123.858 207.738 122.283 209.313 122.283 211.257C122.283 213.2 123.858 214.775 125.802 214.775Z" fill="#987A0F"/>
<path d="M120.805 99.0425C122.749 99.0425 124.324 97.4673 124.324 95.5242C124.324 93.5811 122.749 92.0059 120.805 92.0059C118.862 92.0059 117.287 93.5811 117.287 95.5242C117.287 97.4673 118.862 99.0425 120.805 99.0425Z" fill="#987A0F"/>
<path d="M171.528 132.925C172.507 132.925 173.3 132.132 173.3 131.153C173.3 130.174 172.507 129.381 171.528 129.381C170.549 129.381 169.756 130.174 169.756 131.153C169.756 132.132 170.549 132.925 171.528 132.925Z" fill="#987A0F"/>
<path d="M83.1238 137.831C85.0669 137.831 86.6421 136.255 86.6421 134.312C86.6421 132.369 85.0669 130.794 83.1238 130.794C81.1807 130.794 79.6055 132.369 79.6055 134.312C79.6055 136.255 81.1807 137.831 83.1238 137.831Z" fill="#D5C1AC"/>
<path d="M155.249 198.73C157.192 198.73 158.767 197.155 158.767 195.212C158.767 193.269 157.192 191.693 155.249 191.693C153.306 191.693 151.73 193.269 151.73 195.212C151.73 197.155 153.306 198.73 155.249 198.73Z" fill="#D5C1AC"/>
<path d="M83.875 91.8844L91.4414 47.2621C91.4414 47.2621 129.529 36.6626 127.011 73.456L133.828 80.8161L122.007 82.8436L125.239 131.467" stroke="#1B191A" stroke-miterlimit="10" stroke-linecap="round" stroke-linejoin="round"/>
<path d="M160.58 88.2983L145.476 101.141C143.87 102.507 143.737 104.669 145.185 105.866C146.474 106.931 148.577 106.863 150.063 105.705L165.725 93.516C167.282 92.3041 167.624 90.3164 166.499 89.0132L165.953 88.3686C164.706 86.9294 162.224 86.9013 160.58 88.2983Z" stroke="#1B191A" stroke-miterlimit="10" stroke-linecap="round" stroke-linejoin="round"/>
<path d="M166.204 93.2905L151.1 106.133C149.492 107.5 149.36 109.661 150.809 110.859C152.098 111.923 154.201 111.853 155.685 110.697L171.347 98.5082C172.906 97.2964 173.248 95.3087 172.12 94.0055L171.565 93.3609C170.33 91.9099 167.847 91.8842 166.204 93.2905Z" stroke="#1B191A" stroke-miterlimit="10" stroke-linecap="round" stroke-linejoin="round"/>
<path d="M172.187 98.2366L157.116 111.105C155.512 112.474 155.386 114.633 156.839 115.828C158.131 116.89 160.235 116.815 161.717 115.655L177.349 103.426C178.903 102.21 179.238 100.222 178.108 98.9234L177.55 98.2788C176.31 96.8583 173.828 96.8349 172.187 98.2366Z" stroke="#1B191A" stroke-miterlimit="10" stroke-linecap="round" stroke-linejoin="round"/>
<path d="M176.919 103.67L162.928 117.467C161.439 118.934 161.51 121.077 163.08 122.155C164.487 123.109 166.596 122.884 167.972 121.632L182.596 108.426C184.05 107.114 184.207 105.128 182.95 103.926L182.329 103.33C180.941 102.013 178.44 102.17 176.919 103.67Z" stroke="#1B191A" stroke-miterlimit="10" stroke-linecap="round" stroke-linejoin="round"/>
<path d="M110.871 107.085L92.8506 115.355C90.9356 116.234 90.2207 118.278 91.2919 119.825C92.2436 121.198 94.2875 121.7 96.0291 120.997L114.411 113.496C116.239 112.748 117.106 110.929 116.375 109.371L116.028 108.597C115.222 106.886 112.84 106.183 110.871 107.085Z" stroke="#1B191A" stroke-miterlimit="10" stroke-linecap="round" stroke-linejoin="round"/>
<path d="M114.308 114.332L97.4525 121.226C95.6594 121.957 94.9257 123.804 95.8492 125.267C96.6696 126.566 98.5237 127.105 100.153 126.519L117.311 120.349C119.017 119.735 119.889 118.099 119.273 116.639L118.97 115.917C118.3 114.316 116.141 113.582 114.308 114.332Z" stroke="#1B191A" stroke-miterlimit="10" stroke-linecap="round" stroke-linejoin="round"/>
<path d="M118.37 120.535L99.7469 127.333C97.7662 128.055 96.8919 130.035 97.8365 131.662C98.6733 133.108 100.67 133.772 102.466 133.207L121.387 127.215C123.262 126.62 124.279 124.871 123.674 123.263L123.374 122.464C122.72 120.685 120.402 119.797 118.37 120.535Z" stroke="#1B191A" stroke-miterlimit="10" stroke-linecap="round" stroke-linejoin="round"/>
<path d="M121.905 127.803L103.355 134.285C101.381 134.974 100.528 136.94 101.48 138.583C102.333 140.044 104.335 140.742 106.123 140.205L124.981 134.526C126.856 133.961 127.847 132.234 127.228 130.609L126.921 129.808C126.249 128.026 123.923 127.098 121.905 127.803Z" stroke="#1B191A" stroke-miterlimit="10" stroke-linecap="round" stroke-linejoin="round"/>
</svg>
