<svg width="280" height="280" viewBox="0 0 280 280" fill="none" xmlns="http://www.w3.org/2000/svg">
<path d="M217.251 76.919L199.34 71.1649C195.441 69.9121 191.264 72.0578 190.011 75.9574L178.5 111.789C177.247 115.688 179.393 119.865 183.292 121.118L201.204 126.872C205.103 128.125 209.28 125.979 210.533 122.08L222.044 86.2483C223.297 82.3486 221.151 78.1718 217.251 76.919Z" fill="#D5C1AC"/>
<path d="M195.001 142.83C195.001 142.83 198.008 111.916 198.175 109.41C198.341 106.904 198.51 103.562 202.52 104.23C206.531 104.898 204.609 117.848 204.609 117.848L214.885 107.572L219.896 102.559" stroke="#1B191A" stroke-miterlimit="10" stroke-linecap="round" stroke-linejoin="round"/>
<path d="M208.701 113.254C208.701 113.254 204.358 112.082 207.03 107.406C209.702 102.729 221.563 94.0449 221.563 94.0449C221.563 94.0449 229.577 94.5442 227.746 101.063C227.591 101.609 226.192 103.102 225.909 103.735L215.719 113.917" stroke="#1B191A" stroke-miterlimit="10" stroke-linecap="round" stroke-linejoin="round"/>
<path d="M228.585 99.2176C228.585 99.2176 233.599 99.0488 232.931 103.727L219.396 119.432" stroke="#1B191A" stroke-miterlimit="10" stroke-linecap="round" stroke-linejoin="round"/>
<path d="M232.596 103.561C232.596 103.561 237.61 103.395 236.942 108.073L223.405 123.778" stroke="#1B191A" stroke-miterlimit="10" stroke-linecap="round" stroke-linejoin="round"/>
<path d="M236.9 108.227C236.9 108.227 241.911 108.061 241.243 112.739L227.709 128.444C227.24 128.789 185.143 219.859 161.916 194.626C138.69 169.393 97.4168 150.013 141.195 138.997C184.974 127.98 246.632 151.028 231.439 192.8C216.245 234.572 162.261 213.688 141.195 206.002C120.13 198.316 111.453 243.766 110.449 244.443C109.446 245.12 105.761 245.446 106.774 238.761C106.774 238.761 100.091 249.122 100.759 242.104C101.427 235.086 100.759 237.76 100.759 237.76C100.759 237.76 91.735 248.777 93.4063 241.436L95.0775 234.083C95.0775 234.083 88.0597 249.122 88.3925 241.1C88.7253 233.079 92.403 227.4 92.403 227.4C92.403 227.4 81.3863 246.782 82.045 239.096C82.7037 231.41 88.0597 184.289 117.802 186.962C147.545 189.634 143.535 178.922 154.235 177.583C164.935 176.245 198.681 193.958 204.363 186.608C210.045 179.257 189.657 162.88 188.659 163.871" stroke="#1B191A" stroke-miterlimit="10" stroke-linecap="round" stroke-linejoin="round"/>
<path d="M190.822 119.8C192.852 119.8 194.497 118.154 194.497 116.125C194.497 114.095 192.852 112.449 190.822 112.449C188.792 112.449 187.146 114.095 187.146 116.125C187.146 118.154 188.792 119.8 190.822 119.8Z" stroke="#1B191A" stroke-miterlimit="10" stroke-linecap="round" stroke-linejoin="round"/>
<path d="M170.708 135.814C170.708 135.814 188.656 110.466 190.163 108.46C191.67 106.453 193.735 103.819 190.264 101.7C186.792 99.5807 179.784 110.635 179.784 110.635L178.734 96.1398L178.22 89.0703" stroke="#1B191A" stroke-miterlimit="10" stroke-linecap="round" stroke-linejoin="round"/>
<path d="M179.693 104.482C179.693 104.482 183.743 106.44 184.784 101.152C185.825 95.8635 182.532 81.5301 182.532 81.5301C182.532 81.5301 176.144 76.6663 173.266 82.7935C173.031 83.3092 173.106 85.3531 172.907 86.0188L173.948 100.397" stroke="#1B191A" stroke-miterlimit="10" stroke-linecap="round" stroke-linejoin="round"/>
<path d="M173.834 80.8678C173.834 80.8678 170.152 77.462 167.597 81.4374L167.56 102.172" stroke="#1B191A" stroke-miterlimit="10" stroke-linecap="round" stroke-linejoin="round"/>
<path d="M167.961 81.5202C167.961 81.5202 164.278 78.1144 161.723 82.0898L161.684 102.825" stroke="#1B191A" stroke-miterlimit="10" stroke-linecap="round" stroke-linejoin="round"/>
<path d="M162.088 83.7826C162.088 83.7826 158.417 80.3651 155.848 84.3311L155.74 105.066C155.74 105.066 157.238 123.78 147.536 125.116C137.834 126.452 130.158 124.448 127.819 109.412C125.479 94.3751 124.476 82.6763 124.476 82.6763L128.487 81.6731L118.797 63.962C118.797 63.962 91.058 57.6121 88.7187 71.9831C86.3794 86.354 92.7292 127.458 92.7292 127.458" stroke="#1B191A" stroke-miterlimit="10" stroke-linecap="round" stroke-linejoin="round"/>
<path d="M208.702 206.994C211.286 206.994 213.381 204.899 213.381 202.315C213.381 199.731 211.286 197.637 208.702 197.637C206.118 197.637 204.023 199.731 204.023 202.315C204.023 204.899 206.118 206.994 208.702 206.994Z" fill="#1D765A"/>
<path d="M171.273 69.6415C172.565 69.6415 173.612 68.5941 173.612 67.3022C173.612 66.0102 172.565 64.9629 171.273 64.9629C169.981 64.9629 168.934 66.0102 168.934 67.3022C168.934 68.5941 169.981 69.6415 171.273 69.6415Z" fill="#987A0F"/>
<path d="M119.806 197.636C103.431 190.951 24.5632 109.409 75.6947 123.444C126.826 137.48 97.0812 227.048 94.4091 169.229C91.7369 111.41 75.3595 96.0409 100.759 105.398C126.158 114.755 129.166 180.926 154.563 162.202" stroke="#1B191A" stroke-miterlimit="10" stroke-linecap="round" stroke-linejoin="round"/>
</svg>
