<svg width="24" height="24" viewBox="0 0 24 24" fill="none" xmlns="http://www.w3.org/2000/svg">
<path d="M10.1443 6.62802C10.931 4.66702 11.3243 3.68652 12.0006 3.68652C12.6769 3.68652 13.0702 4.66702 13.8568 6.62802L13.8934 6.71934C14.3378 7.82721 14.56 8.38114 15.0129 8.71783C15.4657 9.05452 16.0602 9.10776 17.2491 9.21423L17.464 9.23348C19.4099 9.40774 20.3828 9.49488 20.5909 10.1139C20.7991 10.7328 20.0766 11.3902 18.6316 12.7049L18.1493 13.1436C17.4178 13.8092 17.052 14.1419 16.8815 14.5781C16.8497 14.6594 16.8233 14.7428 16.8024 14.8276C16.6903 15.2822 16.7975 15.765 17.0117 16.7304L17.0783 17.031C17.472 18.8053 17.6688 19.6925 17.3252 20.0751C17.1967 20.2181 17.0298 20.3211 16.8444 20.3717C16.3482 20.5071 15.6437 19.933 14.2348 18.7849C13.3096 18.031 12.847 17.6541 12.3159 17.5693C12.107 17.5359 11.8941 17.5359 11.6852 17.5693C11.1541 17.6541 10.6915 18.031 9.76638 18.7849C8.35742 19.933 7.65295 20.5071 7.15675 20.3717C6.97133 20.3211 6.80442 20.2181 6.676 20.0751C6.33232 19.6925 6.52915 18.8053 6.92283 17.031L6.9895 16.7304C7.20371 15.765 7.31082 15.2822 7.19876 14.8276C7.17786 14.7428 7.15142 14.6594 7.11962 14.5781C6.94915 14.1419 6.5834 13.8092 5.85189 13.1436L5.36961 12.7049C3.92456 11.3902 3.20204 10.7328 3.41022 10.1139C3.6184 9.49488 4.59131 9.40774 6.53712 9.23348L6.75206 9.21423C7.94097 9.10775 8.53543 9.05452 8.98828 8.71783C9.44113 8.38114 9.66333 7.8272 10.1077 6.71934L10.1443 6.62802Z" stroke="#1B191A"/>
</svg>
