<svg width="20" height="22" viewBox="0 0 20 22" fill="none" xmlns="http://www.w3.org/2000/svg">
<path fill-rule="evenodd" clip-rule="evenodd" d="M10.0009 0.484589C9.34351 0.484589 8.77155 0.906168 7.62764 1.74933L5.90673 3.01778C5.72653 3.15061 5.63643 3.21702 5.53969 3.27288C5.44295 3.32873 5.34039 3.37355 5.13525 3.4632L3.17628 4.31932C1.87413 4.8884 1.22305 5.17294 0.894333 5.74229C0.565614 6.31165 0.644735 7.01777 0.802977 8.43L1.04104 10.5546C1.06597 10.7771 1.07843 10.8883 1.07843 11C1.07843 11.1117 1.06597 11.2229 1.04104 11.4454L0.802977 13.57C0.644735 14.9822 0.565614 15.6883 0.894333 16.2577C1.22305 16.8271 1.87413 17.1116 3.17628 17.6807L5.13525 18.5368C5.34039 18.6264 5.44295 18.6713 5.53969 18.7271C5.63643 18.783 5.72653 18.8494 5.90673 18.9822L7.62764 20.2507C8.77155 21.0938 9.34351 21.5154 10.0009 21.5154C10.6584 21.5154 11.2303 21.0938 12.3742 20.2507L12.3743 20.2507L14.0952 18.9822C14.2754 18.8494 14.3655 18.783 14.4622 18.7271C14.5589 18.6713 14.6615 18.6264 14.8666 18.5368L16.8256 17.6807C18.1278 17.1116 18.7788 16.8271 19.1076 16.2577C19.4363 15.6883 19.3572 14.9822 19.1989 13.57L18.9609 11.4454L18.9608 11.4454C18.9359 11.2229 18.9235 11.1117 18.9235 11C18.9235 10.8883 18.9359 10.7771 18.9608 10.5546L18.9609 10.5546L19.1989 8.43001C19.3572 7.01777 19.4363 6.31165 19.1076 5.74229C18.7788 5.17294 18.1278 4.8884 16.8256 4.31932L14.8666 3.4632L14.8666 3.4632C14.6615 3.37355 14.5589 3.32872 14.4622 3.27288C14.3655 3.21702 14.2754 3.15061 14.0952 3.01778L12.3743 1.74933C11.2303 0.906168 10.6584 0.484589 10.0009 0.484589ZM10.0009 15C12.2101 15 14.0009 13.2091 14.0009 11C14.0009 8.79086 12.2101 7 10.0009 7C7.79181 7 6.00095 8.79086 6.00095 11C6.00095 13.2091 7.79181 15 10.0009 15Z" fill="#B6C1C7"/>
</svg>
