<?xml version="1.0" encoding="UTF-8"?>
<svg xmlns="http://www.w3.org/2000/svg" xmlns:xlink="http://www.w3.org/1999/xlink" width="50pt" height="50pt" viewBox="0 0 50 50" version="1.1">
<g id="surface1">
<path style=" stroke:none;fill-rule:nonzero;fill:rgb(89.019608%,89.019608%,89.019608%);fill-opacity:1;" d="M 23.074219 49.105469 C 18.511719 48.625 14.863281 47.324219 11.355469 44.917969 C 10.8125 44.542969 10.136719 44.050781 9.84375 43.8125 C 9.019531 43.144531 7.125 41.269531 6.417969 40.417969 C 3.59375 37.042969 1.769531 32.949219 1.074219 28.4375 C 0.824219 26.769531 0.824219 23.230469 1.074219 21.5625 C 1.65625 17.800781 2.917969 14.574219 5.011719 11.449219 C 5.824219 10.230469 6.488281 9.425781 7.75 8.144531 C 11.5625 4.25 16.125 1.917969 21.5625 1.074219 C 23.230469 0.824219 26.769531 0.824219 28.4375 1.074219 C 32.199219 1.65625 35.425781 2.917969 38.550781 5.011719 C 42.125 7.40625 45.292969 11.167969 47.019531 15.074219 C 48.519531 18.449219 49.105469 21.25 49.105469 25 C 49.105469 27.46875 48.96875 28.730469 48.4375 30.832031 C 46.824219 37.28125 42.707031 42.6875 36.824219 46.074219 C 34.5 47.40625 31.40625 48.46875 28.542969 48.90625 C 27.488281 49.0625 23.949219 49.199219 23.074219 49.105469 Z M 14.207031 32.6875 C 14.574219 32.582031 15.386719 31.824219 19.824219 27.40625 L 25 22.238281 L 30.082031 27.3125 C 35.425781 32.65625 35.605469 32.800781 36.511719 32.8125 C 37.40625 32.8125 37.6875 32.644531 38.988281 31.363281 C 39.667969 30.699219 40.292969 30.019531 40.375 29.863281 C 40.605469 29.425781 40.667969 28.613281 40.519531 28.050781 C 40.394531 27.582031 39.925781 27.09375 33.449219 20.59375 C 29.375 16.5 26.332031 13.542969 26.09375 13.40625 C 25.519531 13.09375 24.480469 13.105469 23.90625 13.40625 C 23.667969 13.542969 20.636719 16.5 16.605469 20.542969 C 9.011719 28.15625 9.28125 27.832031 9.40625 29 C 9.4375 29.3125 9.53125 29.699219 9.613281 29.855469 C 9.90625 30.394531 12.113281 32.5 12.5625 32.65625 C 13.0625 32.832031 13.644531 32.855469 14.207031 32.6875 Z M 14.207031 32.6875 "/>
</g>
</svg>
