<svg width="24" height="24" viewBox="0 0 24 24" fill="none" xmlns="http://www.w3.org/2000/svg">
<path d="M12.398 17.804L12.6283 18.2478L12.398 17.804ZM11.602 17.804L11.3717 18.2478H11.3717L11.602 17.804ZM18.5 9C18.5 11.327 17.3141 13.2164 15.9 14.6426C14.4865 16.0684 12.8868 16.9872 12.1678 17.3601L12.6283 18.2478C13.3922 17.8516 15.0935 16.8765 16.6102 15.3467C18.1264 13.8173 19.5 11.6894 19.5 9H18.5ZM12 2.5C15.5899 2.5 18.5 5.41015 18.5 9H19.5C19.5 4.85786 16.1421 1.5 12 1.5V2.5ZM5.5 9C5.5 5.41015 8.41015 2.5 12 2.5V1.5C7.85786 1.5 4.5 4.85786 4.5 9H5.5ZM11.8322 17.3601C11.1132 16.9872 9.51351 16.0684 8.09996 14.6426C6.68593 13.2164 5.5 11.327 5.5 9H4.5C4.5 11.6894 5.87358 13.8173 7.38981 15.3467C8.9065 16.8765 10.6078 17.8516 11.3717 18.2478L11.8322 17.3601ZM12.1678 17.3601C12.0593 17.4164 11.9407 17.4164 11.8322 17.3601L11.3717 18.2478C11.769 18.4538 12.231 18.4538 12.6283 18.2478L12.1678 17.3601ZM14.5 9C14.5 10.3807 13.3807 11.5 12 11.5V12.5C13.933 12.5 15.5 10.933 15.5 9H14.5ZM12 6.5C13.3807 6.5 14.5 7.61929 14.5 9H15.5C15.5 7.067 13.933 5.5 12 5.5V6.5ZM9.5 9C9.5 7.61929 10.6193 6.5 12 6.5V5.5C10.067 5.5 8.5 7.067 8.5 9H9.5ZM12 11.5C10.6193 11.5 9.5 10.3807 9.5 9H8.5C8.5 10.933 10.067 12.5 12 12.5V11.5Z" fill="#1B191A"/>
<path d="M19.7942 17.5C20.5841 17.9561 21 18.4734 21 19C21 19.5266 20.5841 20.0439 19.7942 20.5C19.0043 20.9561 17.8682 21.3348 16.5 21.5981C15.1318 21.8614 13.5798 22 12 22C10.4202 22 8.86817 21.8614 7.5 21.5981C6.13183 21.3348 4.99569 20.9561 4.20577 20.5C3.41586 20.0439 3 19.5266 3 19C3 18.4734 3.41586 17.9561 4.20577 17.5" stroke="#1B191A" stroke-linecap="round"/>
</svg>
